<?xml version="1.0" encoding="utf-8"?>
<!-- Generator: Adobe Illustrator 25.2.0, SVG Export Plug-In . SVG Version: 6.00 Build 0)  -->
<svg version="1.1" id="Слой_1" fill="#fff" xmlns="http://www.w3.org/2000/svg" xmlns:xlink="http://www.w3.org/1999/xlink" x="0px" y="0px"
	  viewBox="0 0 72 80" style="enable-background:new 0 0 72 80;" xml:space="preserve">
<style type="text/css">
	.st0{fill-rule:evenodd;clip-rule:evenodd;}
</style>
<path class="st0" d="M53.9,75L36,80l-18-5L0,80l10-32l6-1.4L36,73l20-26.4l6,1.4l10,32L53.9,75z M58,40L36,70L14,40h0.1
	c-2.6-4-4.1-8.8-4.1-14C10,11.6,21.6,0,36,0s26,11.6,26,26c0,5.2-1.5,10-4.1,14H58z M36,16c-5.5,0-10,4.5-10,10s4.5,10,10,10
	s10-4.5,10-10S41.5,16,36,16z"/>
</svg>
