<?xml version="1.0" encoding="utf-8"?>
<!-- Generator: Adobe Illustrator 25.2.3, SVG Export Plug-In . SVG Version: 6.00 Build 0)  -->
<svg version="1.1" id="Слой_1" xmlns="http://www.w3.org/2000/svg" xmlns:xlink="http://www.w3.org/1999/xlink" x="0px" y="0px"
	 width="180px" height="33px" viewBox="0 0 180 33" style="enable-background:new 0 0 180 33;" xml:space="preserve">
<style type="text/css">
	.st0{fill-rule:evenodd;clip-rule:evenodd;fill:#0C143B;}
	.st1{fill-rule:evenodd;clip-rule:evenodd;fill:#FE334A;}
</style>
<path class="st0" d="M130.7,2.6c0,0.7,0,1-0.1,1.2c-1.1-0.7-2.2-1-3.2-1c-1,0-1.9,0.3-2.6,1c-0.7,0.6-1,1.5-1,2.5
	c0,1.1,0.3,1.9,1,2.5c0.7,0.6,1.5,0.9,2.6,0.9c1,0,2.1-0.3,3.2-1c0.1,0.1,0.1,0.5,0.1,1.2c0,0.7-0.1,1.1-0.1,1.3
	c-0.9,0.6-2,0.8-3.4,0.8c-1.9,0-3.4-0.6-4.5-1.6c-1.1-1.1-1.7-2.4-1.7-4c0-1.6,0.6-3,1.7-4c1.1-1.1,2.6-1.6,4.5-1.6
	c1.3,0,2.4,0.3,3.4,0.8C130.7,1.5,130.7,1.9,130.7,2.6z M72,11.6c0.7,0.1,1.4,0.1,2.1,0l5.1-6.4v6.4c0.9,0.1,1.8,0.1,2.7,0V0.7
	c-0.7-0.1-1.4-0.1-2.1,0l-5.1,6.4V0.7c-0.9-0.2-1.8-0.2-2.7,0V11.6z M65.3,7.2h-4.6v4.4c-0.9,0.2-1.8,0.2-2.7,0V0.7
	c0.9-0.2,1.8-0.2,2.7,0V5h4.6V0.7c0.9-0.2,1.8-0.2,2.7,0v10.9c-0.9,0.1-1.8,0.1-2.7,0V7.2z M47.7,7.7l-2.2,3.9
	c0.4,0.1,0.9,0.1,1.5,0.1c0.6,0,1.1,0,1.4-0.1l6.1-10.9c-0.4-0.1-0.9-0.1-1.4-0.1c-0.5,0-1,0-1.5,0.1l-2.5,4.6l-2.5-4.6
	c-0.4-0.1-0.9-0.1-1.4-0.1c-0.5,0-1,0-1.5,0.1L47.7,7.7z M94.3,3.6c0-0.8-0.3-1.5-1-2c-0.7-0.5-1.5-0.8-2.6-0.8H86v10.9h4.8
	c2.3,0,3.8-1.2,3.8-3.1c0-1.2-0.7-2.1-1.7-2.5C93.8,5.5,94.3,4.7,94.3,3.6z M91.8,8.2c0-0.8-0.4-1.1-1.3-1.1h-1.8v2.3h1.9
	C91.4,9.4,91.8,9,91.8,8.2z M88.7,3h1.7c0.8,0,1.2,0.4,1.2,1.1c0,0.7-0.5,1.1-1.2,1.1h-1.7V3z M98,11.6h7.7c0.1-0.7,0.1-1.5,0-2.2
	h-5V7.2h4.4c0.1-0.7,0.1-1.5,0-2.2h-4.4V3h5c0.1-0.7,0.1-1.5,0-2.2H98V11.6z M113.7,8c1.2,0,2.2-0.3,3-1c0.8-0.7,1.2-1.6,1.2-2.6
	c0-1.1-0.4-2-1.2-2.6c-0.8-0.7-1.8-1-3-1h-4.3v10.9c0.9,0.1,1.8,0.1,2.7,0V8H113.7z M115,4.4c0-0.9-0.6-1.4-1.4-1.4H112v2.8h1.6
	C114.4,5.8,115,5.3,115,4.4z M142.6,0.7l-5.1,6.4V0.7c-0.9-0.2-1.8-0.2-2.7,0v10.9c0.7,0.1,1.4,0.1,2.1,0l5.1-6.4v6.4
	c0.9,0.1,1.8,0.1,2.7,0V0.7C144,0.6,143.3,0.6,142.6,0.7z M151.2,3h-3c-0.1-0.7-0.1-1.5,0-2.2h8.7c0.1,0.7,0.1,1.5,0,2.2h-3v8.6
	c-0.9,0.1-1.8,0.1-2.7,0V3z M168.1,11.6c0.1-0.7,0.1-1.5,0-2.2h-5V7.2h4.4c0.1-0.7,0.1-1.5,0-2.2h-4.4V3h5c0.1-0.7,0.1-1.5,0-2.2
	h-7.7v10.9H168.1z M174.1,11.6V3h-3c-0.1-0.7-0.1-1.5,0-2.2h8.7c0.1,0.7,0.1,1.5,0,2.2h-3v8.6C175.9,11.7,175,11.7,174.1,11.6z
	 M53,33c2.1,0,3.8-0.4,5.3-1.3c0.1-0.3,0.2-0.9,0.2-2c0-1-0.1-1.6-0.2-1.8c-1.8,1.1-3.5,1.6-5,1.6c-1.6,0-3-0.5-4-1.5
	c-1.1-1-1.6-2.3-1.6-4s0.5-3,1.6-3.9c1.1-1,2.4-1.5,4-1.5c1.6,0,3.2,0.5,5,1.6c0.1-0.2,0.2-0.8,0.2-1.8c0-1-0.1-1.7-0.2-2
	c-1.4-0.9-3.2-1.3-5.3-1.3c-3,0-5.3,0.9-7.1,2.6c-1.8,1.7-2.7,3.8-2.7,6.3c0,2.5,0.9,4.6,2.7,6.3C47.7,32.1,50,33,53,33z M65.3,32.6
	c-1.1,0.2-2.2,0.2-3.3,0v-17c1.4-0.2,2.8-0.2,4.3,0v10l8.1-10c1.1-0.2,2.2-0.2,3.3,0v17c-1.4,0.2-2.8,0.2-4.3,0v-10L65.3,32.6z
	 M81.3,32.6c1.4,0.2,2.8,0.2,4.3,0v-6.9h7.2v6.9c1.4,0.2,2.8,0.2,4.3,0v-17c-1.4-0.2-2.8-0.2-4.3,0v6.7h-7.2v-6.7
	c-1.4-0.2-2.8-0.2-4.3,0V32.6z M100.7,15.6h12.1c0.2,1.2,0.2,2.3,0,3.5h-7.8v3.2h6.9c0.2,1.2,0.2,2.3,0,3.5h-6.9v3.4h7.8
	c0.2,1.2,0.2,2.3,0,3.5h-12.1V15.6z M127.2,25.4c-1.2,1-2.8,1.6-4.7,1.6h-2.5v5.6c-1.4,0.2-2.8,0.2-4.3,0v-17h6.8
	c1.9,0,3.5,0.5,4.7,1.6c1.2,1,1.8,2.4,1.8,4.1C129,23,128.4,24.3,127.2,25.4z M122.5,19c1.3,0,2.2,0.8,2.2,2.2
	c0,1.5-0.9,2.2-2.2,2.2h-2.5V19H122.5z M136.3,32.6V19h7.1c0.2-1.2,0.2-2.3,0-3.5H132v17C133.5,32.8,134.9,32.8,136.3,32.6z
	 M150.5,15.6v10l8.1-10c1.1-0.2,2.2-0.2,3.3,0v17c-1.4,0.2-2.8,0.2-4.3,0v-10l-8.1,10c-1.1,0.2-2.2,0.2-3.3,0v-17
	C147.6,15.3,149.1,15.3,150.5,15.6z M174.6,32.6v-5.8h-1.7l-3.8,5.8c-0.6,0.1-1.4,0.2-2.3,0.2c-0.9,0-1.7-0.1-2.3-0.2l4.2-6.4
	c-2-0.9-3.3-2.7-3.3-5c0-1.7,0.6-3,1.8-4.1c1.2-1,2.7-1.6,4.7-1.6h7v17C177.4,32.8,176,32.8,174.6,32.6z M174.6,19v4.3h-2.7
	c-1.2,0-2.2-0.8-2.2-2.1c0-1.4,0.9-2.1,2.2-2.1H174.6z"/>
<path class="st1" d="M0.1,32.7v-32h32.6v32H0.1z M28.6,4.7H4.2v24h24.4V4.7z M15.3,16.7l5.1,5v5.7L9.5,16.7L20.3,6v5.7L15.3,16.7z"
	/>
</svg>
