<?xml version="1.0" encoding="utf-8"?>
<!-- Generator: Adobe Illustrator 25.2.0, SVG Export Plug-In . SVG Version: 6.00 Build 0)  -->
<svg version="1.1" id="Слой_1" fill="#ecedf6"  xmlns="http://www.w3.org/2000/svg" xmlns:xlink="http://www.w3.org/1999/xlink" x="0px" y="0px"
	  viewBox="0 0 56 55.5" style="enable-background:new 0 0 56 55.5;" xml:space="preserve">
<g>
	<polygon points="0.6,20.5 5,24.2 5,17.2 	"/>
	<polygon points="0,54.4 19.2,38.5 0,22.6 	"/>
	<path d="M7,25.8l13.8,11.4l5.3-4.4c1.1-0.9,2.7-0.9,3.8,0l5.3,4.4L49,25.8V6.5H7V25.8z M13,13.5c0-2.8,2.2-5,5-5h20
		c2.8,0,5,2.2,5,5v8c0,2.8-2.2,5-5,5h-5.5l-3.7,4.6c-0.3,0.4-1,0.5-1.4,0.2c-0.1,0-0.1-0.1-0.2-0.2l-3.7-4.6H18c-2.8,0-5-2.2-5-5
		V13.5z"/>
	<path d="M18,24.5h6c0.3,0,0.6,0.1,0.8,0.4l3.2,4l3.2-4c0.2-0.2,0.5-0.4,0.8-0.4h6c1.7,0,3-1.3,3-3v-8c0-1.7-1.3-3-3-3H18
		c-1.7,0-3,1.3-3,3v8C15,23.1,16.3,24.5,18,24.5z M20,12.5h16c0.6,0,1,0.4,1,1s-0.4,1-1,1H20c-0.6,0-1-0.4-1-1S19.4,12.5,20,12.5z
		 M20,16.5h16c0.6,0,1,0.4,1,1s-0.4,1-1,1H20c-0.6,0-1-0.4-1-1S19.4,16.5,20,16.5z M20,20.5h16c0.6,0,1,0.4,1,1s-0.4,1-1,1H20
		c-0.6,0-1-0.4-1-1S19.4,20.5,20,20.5z"/>
	<polygon points="51,24.2 55.4,20.5 51,17.2 	"/>
	<polygon points="56,22.6 36.8,38.5 56,54.4 	"/>
	<path d="M27.4,0.2l-5.7,4.3h12.5l-5.7-4.3C28.3-0.1,27.8-0.1,27.4,0.2z"/>
	<path d="M28.6,34.3c-0.4-0.3-0.9-0.3-1.3,0L1.8,55.5h52.4L28.6,34.3z"/>
</g>
</svg>
