<?xml version="1.0" encoding="utf-8"?>
<!-- Generator: Adobe Illustrator 25.2.0, SVG Export Plug-In . SVG Version: 6.00 Build 0)  -->
<svg version="1.1" id="Слой_1" fill="#ecedf6" xmlns="http://www.w3.org/2000/svg" xmlns:xlink="http://www.w3.org/1999/xlink" x="0px" y="0px"
	  viewBox="0 0 56 56" style="enable-background:new 0 0 56 56;" xml:space="preserve">
<g>
	<rect x="37" y="42" width="2" height="2"/>
	<rect x="45" y="42" width="2" height="2"/>
	<rect x="37" y="26" width="2" height="2"/>
	<rect x="37" y="34" width="2" height="2"/>
	<rect x="29" y="34" width="2" height="2"/>
	<rect x="29" y="26" width="2" height="2"/>
	<path d="M56,53c-0.9,0.7-1.9,1-3,1H3c-1.1,0-2.1-0.4-3-1v0c0,1.7,1.3,3,3,3h50C54.7,56,56,54.7,56,53L56,53z"/>
	<rect x="29" y="42" width="2" height="2"/>
	<rect x="45" y="26" width="2" height="2"/>
	<rect x="29" y="14" width="19" height="4"/>
	<path d="M16.3,13.3l1.7-1.7V1c0-0.6-0.4-1-1-1H7C6.4,0,6,0.4,6,1v10.6l1.7,1.7C7.9,13.5,8,13.7,8,14v18c0,0.3-0.1,0.5-0.3,0.7
		L6,34.4V45c0,0.6,0.4,1,1,1h10c0.6,0,1-0.4,1-1V34.4l-1.7-1.7C16.1,32.5,16,32.3,16,32V14C16,13.7,16.1,13.5,16.3,13.3z"/>
	<path d="M56,9c0-1.7-1.3-3-3-3H20v6c0,0.3-0.1,0.5-0.3,0.7L18,14.4v17.2l1.7,1.7c0.2,0.2,0.3,0.4,0.3,0.7v11c0,1.7-1.3,3-3,3H7
		c-1.7,0-3-1.3-3-3V34c0-0.3,0.1-0.5,0.3-0.7L6,31.6V14.4l-1.7-1.7C4.1,12.5,4,12.3,4,12V5.9L3,6c-1.6,0-3,1.4-3,3v40
		c0,1.7,1.3,3,3,3h50c1.7,0,3-1.3,3-3V9z M33,45c0,0.6-0.4,1-1,1h-4c-0.6,0-1-0.4-1-1v-4c0-0.6,0.4-1,1-1h4c0.6,0,1,0.4,1,1V45z
		 M33,37c0,0.6-0.4,1-1,1h-4c-0.6,0-1-0.4-1-1v-4c0-0.6,0.4-1,1-1h4c0.6,0,1,0.4,1,1V37z M33,29c0,0.6-0.4,1-1,1h-4
		c-0.6,0-1-0.4-1-1v-4c0-0.6,0.4-1,1-1h4c0.6,0,1,0.4,1,1V29z M41,45c0,0.6-0.4,1-1,1h-4c-0.6,0-1-0.4-1-1v-4c0-0.6,0.4-1,1-1h4
		c0.6,0,1,0.4,1,1V45z M41,37c0,0.6-0.4,1-1,1h-4c-0.6,0-1-0.4-1-1v-4c0-0.6,0.4-1,1-1h4c0.6,0,1,0.4,1,1V37z M41,29
		c0,0.6-0.4,1-1,1h-4c-0.6,0-1-0.4-1-1v-4c0-0.6,0.4-1,1-1h4c0.6,0,1,0.4,1,1V29z M49,45c0,0.6-0.4,1-1,1h-4c-0.6,0-1-0.4-1-1v-4
		c0-0.6,0.4-1,1-1h4c0.6,0,1,0.4,1,1V45z M49,37c0,0.6-0.4,1-1,1h-4c-0.6,0-1-0.4-1-1v-4c0-0.6,0.4-1,1-1h4c0.6,0,1,0.4,1,1V37z
		 M49,29c0,0.6-0.4,1-1,1h-4c-0.6,0-1-0.4-1-1v-4c0-0.6,0.4-1,1-1h4c0.6,0,1,0.4,1,1V29z M50,19c0,0.6-0.4,1-1,1H28
		c-0.6,0-1-0.4-1-1v-6c0-0.6,0.4-1,1-1h21c0.6,0,1,0.4,1,1V19z"/>
	<rect x="45" y="34" width="2" height="2"/>
</g>
</svg>
