<?xml version="1.0" encoding="utf-8"?>
<!-- Generator: Adobe Illustrator 25.2.3, SVG Export Plug-In . SVG Version: 6.00 Build 0)  -->
<svg version="1.1" id="Слой_1" fill="#fff" xmlns="http://www.w3.org/2000/svg" xmlns:xlink="http://www.w3.org/1999/xlink" x="0px" y="0px"
	  viewBox="0 0 31.8 25.7" style="enable-background:new 0 0 31.8 25.7;" xml:space="preserve">
<desc>Created with Sketch.</desc>
<g>
	<g transform="translate(0.000000, -3.000000)">
		<g>
			<path d="M5.1,14.8L2.5,5.7l25.6,10.2L2.5,26l1.1-4c0.2-0.5-0.2-1.1-0.7-1.2c-0.5-0.2-1.1,0.2-1.2,0.7L0,27.4
				c-0.2,0.8,0.6,1.5,1.3,1.2l29.8-11.8c0.8-0.3,0.8-1.5,0-1.9L1.4,3.1C0.6,2.8-0.2,3.5,0,4.3l3.3,11.8c0.1,0.4,0.5,0.7,1,0.7h8.3
				c0.6,0,1-0.4,1-1c0-0.6-0.4-1-1-1H5.1z"/>
		</g>
	</g>
</g>
</svg>
