<?xml version="1.0" encoding="utf-8"?>
<!-- Generator: Adobe Illustrator 25.1.0, SVG Export Plug-In . SVG Version: 6.00 Build 0)  -->
<svg version="1.1" id="Слой_1" fill="#fff" xmlns="http://www.w3.org/2000/svg" xmlns:xlink="http://www.w3.org/1999/xlink" x="0px" y="0px"
	  viewBox="0 0 90 86" style="enable-background:new 0 0 90 86;" xml:space="preserve">
<path d="M86.6,19.6v17.2c1.7,0.8,2.5,2.9,1.6,4.7c-0.3,0.7-0.9,1.3-1.6,1.6v1.3c0,0.8-0.7,1.5-1.5,1.5s-1.5-0.7-1.5-1.5c0,0,0,0,0,0
	v-1.3c-1.7-0.8-2.5-2.9-1.6-4.7c0.3-0.7,0.9-1.3,1.6-1.6V21.5c-4.5,2.7-9.3,5-14.2,6.9C68.8,21.3,56.9,18.1,45,18.1
	c-11.9,0-23.8,3.2-24.4,10.3C13.5,25.6,6.7,22,0.4,17.7c-0.5-0.3-0.6-0.9-0.3-1.4c0.1-0.2,0.4-0.4,0.6-0.4
	c6.7-1.5,27.2-6.4,42.9-15.6c0.8-0.5,1.9-0.5,2.7,0c15.7,9.2,36.2,14.1,42.9,15.6c0.5,0.1,0.9,0.6,0.8,1.2c-0.1,0.2-0.2,0.5-0.4,0.6
	C88.6,18.4,87.6,19,86.6,19.6z M24.4,29v13.2C32,42.2,42.1,48,45,48s13-5.8,20.6-5.8V29c0-3.9-9.2-7.1-20.6-7.1
	C33.6,21.9,24.4,25.1,24.4,29z M82,54.6H15.7c-5.4,0-9.7,4.3-9.7,9.7c0,5.4,4.3,9.7,9.7,9.7c0,0,0,0,0,0h6.9v-4h-6.9
	c-3.1,0-5.7-2.5-5.7-5.7c0-3.1,2.5-5.7,5.7-5.7c0,0,0,0,0,0H82c1.1,0,2-0.9,2-2S83.1,54.6,82,54.6z M82,70H43.2v4H82
	c1.1,0,2-0.9,2-2S83.1,70,82,70z M28.3,65c-0.4,0-0.7,0.3-0.7,0.7c0,0,0,0,0,0v19.6c0,0.4,0.3,0.7,0.7,0.7c0.2,0,0.4-0.1,0.5-0.3
	l3.6-4.7c0.2-0.3,0.6-0.3,0.9-0.1c0,0,0.1,0.1,0.1,0.1l3.6,4.7c0.2,0.3,0.6,0.3,0.9,0.1c0.2-0.1,0.3-0.3,0.3-0.5V65.7
	c0-0.4-0.3-0.7-0.7-0.7L28.3,65z"/>
</svg>
