<?xml version="1.0" encoding="utf-8"?>
<!-- Generator: Adobe Illustrator 25.2.1, SVG Export Plug-In . SVG Version: 6.00 Build 0)  -->
<svg version="1.1" id="Слой_1" xmlns="http://www.w3.org/2000/svg" xmlns:xlink="http://www.w3.org/1999/xlink" x="0px" y="0px"
	 viewBox="0 0 91 67.8" style="enable-background:new 0 0 91 67.8;" xml:space="preserve">
<style type="text/css">
	.st0{fill:#455FED;}
	.st1{fill:#1C2850;}
</style>
<g>
	<g>
		<g>
			<path class="st0" d="M17.4,10H5c-2.8,0-5-2.2-5-5s2.2-5,5-5h12.4c2.8,0,5,2.2,5,5S20.2,10,17.4,10z"/>
		</g>
	</g>
	<g>
		<g>
			<path class="st0" d="M86,38.9H73.6c-2.8,0-5-2.2-5-5s2.2-5,5-5H86c2.8,0,5,2.2,5,5S88.7,38.9,86,38.9z"/>
		</g>
	</g>
	<g>
		<g>
			<path class="st0" d="M17.4,67.8H5c-2.8,0-5-2.2-5-5s2.2-5,5-5h12.4c2.8,0,5,2.2,5,5S20.2,67.8,17.4,67.8z"/>
		</g>
	</g>
	<g>
		<g>
			<path class="st1" d="M86,10H31.9c-2.8,0-5-2.2-5-5s2.2-5,5-5H86c2.8,0,5,2.2,5,5S88.7,10,86,10z"/>
		</g>
	</g>
	<g>
		<g>
			<path class="st1" d="M59.1,38.9H5c-2.8,0-5-2.2-5-5s2.2-5,5-5h54.1c2.8,0,5,2.2,5,5S61.9,38.9,59.1,38.9z"/>
		</g>
	</g>
	<g>
		<g>
			<path class="st1" d="M86,67.8H31.9c-2.8,0-5-2.2-5-5s2.2-5,5-5H86c2.8,0,5,2.2,5,5S88.7,67.8,86,67.8z"/>
		</g>
	</g>
</g>
</svg>
