<?xml version="1.0" encoding="utf-8"?>
<!-- Generator: Adobe Illustrator 25.1.0, SVG Export Plug-In . SVG Version: 6.00 Build 0)  -->
<svg version="1.1" id="Layer_1" xmlns="http://www.w3.org/2000/svg" xmlns:xlink="http://www.w3.org/1999/xlink" x="0px" y="0px"
	  viewBox="0 0 817.3 838.3" style="enable-background:new 0 0 817.3 838.3;" xml:space="preserve"
	>
<style type="text/css">
	.st0{fill-rule:evenodd;clip-rule:evenodd;fill:#f5f5f5;}
</style>
<path class="st0" d="M259.2,309.9V33.2H81.3v462.9l3,4.4L259.2,309.9z M817.3,838.3L495.1,404.6L378.9,531.2l224.7,307.1H817.3z
	 M10.3,770.5c24.2-11.9,36.2-17.9,36.2-17.9c-8.7-11.3-19.8-20.5-32.6-26.9c-8.8,24.6-13.2,36.9-13.2,36.9
	C-1.6,772,1.6,774.6,10.3,770.5z M66.4,742c108.8-55.6,163.2-83.4,163.2-83.4c-23.8-9.7-37.4-34.8-32.5-59.9
	c-26.4-0.4-48.7-19.4-53.4-45.2c-24.2,8.4-51.1-0.4-65.6-21.5C39.9,646.5,20.9,703.8,20.9,703.8C40,710.9,56.1,724.4,66.4,742z
	 M491.7,374.5l0.7-0.7l9.6-10.5l9.9-10.7l10.1-11l10.3-11.2l10.5-11.5l10.7-11.7l10.9-11.9l11.2-12.2l11.4-12.4l11.6-12.6l11.8-12.9
	l12-13.1l12.2-13.3l12.4-13.6l12.7-13.8l12.9-14.1l13.1-14.3l13.3-14.5l13.5-14.8l13.8-15l79.6-86.7L574.5,0l-175,190.7l0,0
	L260.4,342.4l-51.1,55.7L195,413.6l-4.7,5.1l-6.9,7.5l-7.2,7.9l-5.1,5.6l-6.2,6.8l-8.4,9.2l-1.8,2l-12.6,13.8l-0.7,0.8l-8.2,8.9
	l-0.5,0.6l-1.5,1.7l-31.3,34.1c7.8,11.3,22.4,16.1,35.4,11.6l25.4-8.8l122.3-133.3l5-5.4L592.4,49.4l119.1,16.5l-242.2,264l-5,5.4
	L223.8,597.5l-1.2,6.2c-2.5,12.9,4.6,25.9,16.8,30.9l9.9,4l33.4-36.4l1.1-1.2l1.1-1.2l2-2.2l6.6-7.2l0,0l5.5-6l6.5-7.1l2.6-2.9
	l3.4-3.7l4.9-5.3l4.3-4.7l2.3-2.5l4.7-5.1l6.9-7.5l2-2.2l12.3-13.5l2.8-3l0.7-0.8L491.7,374.5z M207.4,572.9l395.2-427.2l-55.9-8
	l-377.6,410l0.2,1.1c2.5,13.6,14.3,23.6,28.2,23.8L207.4,572.9z M561.5,116.9l64,9.1l39.9-43.5l-64.2-8.9L561.5,116.9z"/>
</svg>
