<?xml version="1.0" encoding="utf-8"?>
<!-- Generator: Adobe Illustrator 25.1.0, SVG Export Plug-In . SVG Version: 6.00 Build 0)  -->
<svg version="1.1" fill="#fff" id="Layer_1" xmlns="http://www.w3.org/2000/svg" xmlns:xlink="http://www.w3.org/1999/xlink" x="0px" y="0px"
	  viewBox="0 0 739.7 942.8" style="enable-background:new 0 0 739.7 942.8;" xml:space="preserve"
	>

<path class="st0" d="M75.3,936.8c-8.4-21.7-12.7-32.6-12.7-32.6c12.2-2.2,24.8-1.6,36.7,1.8c-8.9,20.9-13.3,31.3-13.3,31.3
	C82.1,944.7,78.5,944.5,75.3,936.8 M56.2,885.9C19.3,786.8,0.9,737.3,0.9,737.3c20.9,7.7,44.4-0.4,56.1-19.4
	c17.1,15.1,42.6,16,60.8,2.2c10.5,19.5,33,29.6,54.6,24.5c-43,95.6-64.5,143.4-64.5,143.4C91.4,881.3,73.2,880.6,56.2,885.9z
	 M0.4,402.4v-0.8l0-12.3l0-12.6l0-12.9l0-13.2l0-13.5l0-13.7l0-14l0-14.3l0-14.6l0-14.8l0-15.1l0-15.4l0-15.7l0-15.9l0-16.2l0-16.5
	l0-16.8l0-17.1l0-17.3l0-17.6L0.9,0l167,114.4l-0.3,224.2h0l-0.2,178.3l-0.1,65.5l0,18.2l0,6l0,8.8l0,9.3l0,6.5l0,8l0,10.8v2.3
	l0,16.2v0.9l0,10.4v0.7l0,2l0,40.1c-11.6,2.7-23.8-2.7-29.4-13.2l-11-20.5l0.2-156.6V526l0.5-390.4l-86-58.9L40.9,387l0,6.3
	l-0.4,308.2l-2.9,4.7c-6,9.7-18.2,14-28.9,10L0,712.9l0.1-42.8v-1.4v-1.4l0-2.6l0-8.4v-0.1l0-7.1l0-8.3l0-3.3v-4.4l0-6.2v-5.5l0-3
	l0-6l0-8.8V601l0-15.8v-3.6l0-0.9L0.4,402.4z M65.5,695.4l-1.5-504.1l40.5,27.5l0.3,482.8l-0.8,0.6c-9.6,7.3-23,6.8-32.1-1.2
	L65.5,695.4z"/>
<polygon points="381.7,488.3 265.5,361.7 450.1,99.2 663.8,99.2 "/>
<polygon points="195.5,230.4 195.5,488.3 526,922.9 739.7,922.9 "/>
</svg>
