<?xml version="1.0" encoding="utf-8"?>
<!-- Generator: Adobe Illustrator 25.1.0, SVG Export Plug-In . SVG Version: 6.00 Build 0)  -->
<svg version="1.1" fill="#f5f5f5" id="Layer_1" xmlns="http://www.w3.org/2000/svg" xmlns:xlink="http://www.w3.org/1999/xlink" x="0px" y="0px"
	  viewBox="0 0 763.1 923" style="enable-background:new 0 0 763.1 923;" xml:space="preserve">

<path class="st0" d="M227.1,389.5L0.2,729.6V561.3V27.7h416.8c16.4,0,32.2,0.7,47.4,2L352,200.3H192.8v189.2H227.1z M9,920.7
	c18.6-12.6,27.9-19,27.9-19c-8.5-8.4-18.8-14.7-30.1-18.5c-4.4,21.4-6.6,32.1-6.6,32.1C-0.7,923.2,2.2,925,9,920.7z M52,890.6
	c83.6-58.5,125.3-87.8,125.3-87.8c-20.8-5.3-35-24.5-33.8-45.8c-21.9,2.7-42.6-10.4-49.4-31.3c-19.1,9.8-42.4,5.6-56.7-10.3
	C19.1,814.7,10,864.2,10,864.2C26.6,867.9,41.5,877.2,52,890.6z M635.5,122.2l9.3-13.5l9.5-13.8l9.6-14L719.7,0H524.6L263.8,396.2
	l0,0l-97.6,141.4l-35.8,52l-10,14.5l-3.3,4.8l-4.8,7l-5.1,7.4l-3.6,5.2l-4.4,6.4l-5.9,8.6l-1.3,1.9L83.2,658l-0.5,0.7l-5.7,8.3
	l-0.4,0.5l-1.1,1.6L53.6,701c7.7,8.5,20.4,10.8,30.6,5.5l20-10.2L189.9,572l3.5-5L545.1,38.8h100.5
	c-159.3,240.3-316.6,477-480.1,714.1l-0.3,5.2c-0.6,11,6.8,20.9,17.5,23.6l8.7,2.2l23.4-33.9l0.8-1.1l0.8-1.1l1.4-2.1l4.6-6.7l0-0.1
	l3.9-5.6l4.6-6.6l1.8-2.7l2.4-3.5l3.4-4.9l3-4.4l1.6-2.4l3.3-4.8l4.8-7l1.4-2l8.7-12.5l2-2.8l0.5-0.7
	C393.9,490.5,511.3,317.4,635.5,122.2z M149.1,734.5l415.6-617.2l-47.2-0.2l-403,600.9l0.3,0.9c3.6,11,14.5,17.9,26.1,16.5
	L149.1,734.5z M763.1,677.2v-2.5c0-59.7-15-106.3-44.7-140c-29.8-33.7-70.8-60.3-122.6-79.9c16-8.5,31.2-18.8,45.2-30.7
	c14.1-11.9,26.3-25.8,37-41.6c10.7-15.8,19.1-33.5,25.5-53.1c6.4-19.6,9.6-42.2,9.6-67.8v-2.6c0-50.9-13.6-94.3-40.8-130.2
	l-8.3,11.9L392,553.2h29.4c51.4,0,88.6,8.7,111.7,26.2c23.1,17.5,34.7,41.1,34.7,70.9v2.6c0,33.2-12.4,57.8-37.2,73.5
	c-24.8,15.8-59.1,23.7-102.8,23.7H253.3l-135,163.2l-9.8,9.4h-0.3h104.8h214.1c50.3,0,96.3-5.1,137.9-15.3
	c41.3-10.2,76.8-25.6,106.4-46c29.3-20.5,52-46,67.9-76.7C755.2,753.9,763.1,718.1,763.1,677.2z"/>
</svg>
