<?xml version="1.0" encoding="utf-8"?>
<!-- Generator: Adobe Illustrator 25.2.0, SVG Export Plug-In . SVG Version: 6.00 Build 0)  -->
<svg version="1.1" id="Layer_1" xmlns="http://www.w3.org/2000/svg" xmlns:xlink="http://www.w3.org/1999/xlink" x="0px" y="0px"
	  viewBox="0 0 488.7 488.7" style="enable-background:new 0 0 488.7 488.7;" xml:space="preserve"
	>
<style type="text/css">
	.st0{fill:#455FED;}
	.st1{fill:#FF3C46;}
</style>
<polyline class="st0" points="488.7,270.1 488.7,269.5 488.7,215.8 488.7,161.5 488.7,132.2 488.7,107.9 488.7,80.6 488.7,54.3 
	488.7,0 434.4,0 380.1,0 325.8,0 271.5,0 217.2,0 162.9,0 108.6,0 54.3,0 0,0 0,54.3 0,108.6 0,162.9 0,217.2 0,271.5 0,325.8 
	0,380.1 0,450.3 0,469.5 0,488.7 54.6,488.7 54.3,396 54.3,380.1 54.3,325.8 54.3,271.5 54.3,217.2 54.3,162.9 54.3,108.6 
	54.3,54.3 108.6,54.3 162.9,54.3 217.2,54.3 271.5,54.3 325.8,54.3 380.1,54.3 434.4,54.3 434.4,80.6 434.4,107.9 434.4,132.2 
	434.4,161.5 434.4,215.8 434.4,269.7 434.4,270.1 "/>
<rect x="155.9" y="148.5" class="st1" width="191.8" height="191.8"/>
<polygon class="st0" points="54.1,434.4 266.1,434.4 266.1,488.7 6.1,488.7 "/>
</svg>
