<?xml version="1.0" encoding="utf-8"?>
<!-- Generator: Adobe Illustrator 25.2.0, SVG Export Plug-In . SVG Version: 6.00 Build 0)  -->
<svg version="1.1" id="Слой_1" fill="#455fed" xmlns="http://www.w3.org/2000/svg" xmlns:xlink="http://www.w3.org/1999/xlink" x="0px" y="0px"
	  viewBox="0 0 424.8 424.8" style="enable-background:new 0 0 424.8 424.8;" xml:space="preserve"
	>
<path d="M138.8,146.5c-2.9-2.9-6.8-4.5-10.9-4.5c-4.1,0-8,1.6-10.9,4.5l-40.7,40.7c-6,6-6,15.7,0,21.7l50.1,50.1
	c0.2,0.2,0.3,0.4,0.5,0.6l40.7,40.7c2.9,2.9,6.8,4.5,10.9,4.5c4.1,0,8-1.6,10.9-4.5L413,76.7c2.9-2.9,4.5-6.8,4.5-10.9
	s-1.6-8-4.5-10.9l-40.7-40.7c-6-6-15.7-6-21.7,0l-172,172L138.8,146.5z"/>
<path d="M408.1,129.8c-2.5-5.9-5.3-11.7-8.3-17.3L369.3,143c9.6,21.6,14.6,45.2,14.6,69.5c0,45.8-17.8,88.9-50.3,121.3
	c-32.4,32.4-75.5,50.3-121.3,50.3S123.4,366.3,91,333.8c-32.4-32.4-50.3-75.5-50.3-121.3S58.5,123.6,91,91.2
	c32.4-32.4,75.5-50.3,121.3-50.3c25.6,0,50.4,5.6,72.9,16.2l30.4-30.4c-6.6-3.7-13.5-7.1-20.5-10C268.9,5.6,241.1,0,212.4,0
	s-56.5,5.6-82.7,16.7c-25.3,10.7-48,26-67.5,45.5s-34.8,42.2-45.5,67.5C5.6,155.9,0,183.7,0,212.4c0,28.7,5.6,56.5,16.7,82.7
	c10.7,25.3,26,48,45.5,67.5s42.2,34.8,67.5,45.5c26.2,11.1,54,16.7,82.7,16.7s56.5-5.6,82.7-16.7c25.3-10.7,48-26,67.5-45.5
	s34.8-42.2,45.5-67.5c11.1-26.2,16.7-54,16.7-82.7C424.8,183.8,419.2,156,408.1,129.8z"/>
</svg>
