<?xml version="1.0" encoding="utf-8"?>
<!-- Generator: Adobe Illustrator 25.2.0, SVG Export Plug-In . SVG Version: 6.00 Build 0)  -->
<svg version="1.1" id="Слой_1" fill="#ecedf6" xmlns="http://www.w3.org/2000/svg" xmlns:xlink="http://www.w3.org/1999/xlink" x="0px" y="0px"
	  viewBox="0 0 487.6 605.1" style="enable-background:new 0 0 487.6 605.1;" xml:space="preserve"
	>
<path d="M112.1,94.5c-3.9,14.6-6.7,28.3-8.7,41.5c-2,15.4-2.5,30.9-2.2,46c-3.1,3.6-5.6,7.9-7.6,12.6c-2,3.9-3.1,8.7-3.6,14.6
	c-0.6,5.9,0.3,12.3,2.8,18.8c2.2,6.5,4.5,11.8,7.3,15.4c2.5,3.6,4.8,6.5,7.3,8.4c2.8,1.7,5.6,3.1,8.4,4.2c0.3,1.2,0.7,2.4,1,3.6
	c11,77,79.8,136.4,127.1,136.4c47.4,0,116.8-60,127.2-137.5c0.3-1,0.6-2,0.8-3c4.2-1.1,7.9-3.1,11.2-6.5c2.8-2.8,5.6-7,8.4-12.1
	c2.8-5.1,4.5-12.1,5.6-20.5c1-6.3,0.7-11.9-0.4-16.4h0c-1.1-4.5-2.5-8.1-3.9-10.9c-2-3.1-4.2-5.6-6.4-7.6c0.6-16-0.3-32-2.8-48
	c-2.5-13.5-5.9-28.3-10.9-44c-5.1-16-12.6-30-23-42.9c-9-11.2-23-21.9-41.8-31.7C288.7,5,267.4,0,243.3,0c-9,0-18.5,0.8-28.3,2.2
	c-9.8,1.4-19.9,4.2-29.7,8.1c-9.8,3.9-19.6,9.5-28.9,16.6c-9.5,7-18,16.3-25.5,27.5C122.2,66.7,116,80.2,112.1,94.5z"/>
<path d="M485.9,497.2c-0.8-9.7-2.2-17.8-4.2-24.3v0c-3.9-10.4-10.1-18.8-18.8-27.2c-8.7-6.5-18.5-12.1-29.7-16.3
	s-22.7-7.9-34.8-10.9c-9.9-2.5-25.7-8.3-31-10.3c-1.2-0.4-2.3-1-3.4-1.6L345.3,396c-3.6-2.1-8.2-1.1-10.7,2.3
	c-9.9,13.8-34.7,48.3-48.6,68.1c-3.2,4.6-10,4.3-12.9-0.4c-6.9-11.3-13.8-21.8-20.7-33.2c-2.8-4.7-9.5-5-12.8-0.6
	c-8.9,11.9-16.8,23.7-25.7,35.6c-3.1,4.2-9.5,4.1-12.5-0.2c-16-22.8-33-45.6-49-68.4c-2.4-3.5-7.2-4.4-10.7-1.9
	c-0.1,0.1-0.2,0.2-0.3,0.2c-2.4,1.8-5.1,3.7-8,5.7c-10.7,7.3-23,12.3-37,16c-14,3.6-27.5,7.6-40.7,12.3
	C42.5,436.3,31,442.4,21.5,450s-15.7,18.8-18,33.9C-0.4,509.7-1,531,1.3,547.6c2.5,16.6,5.6,26.4,9.3,29.7c2.5,2,8.1,3.9,17.4,6.2
	c9.3,2.2,20.5,4.2,33.9,6.5c13.5,2,28.3,3.9,44.3,5.6c16,1.4,32.3,3.1,48.8,4.5c16.6,1.4,32.5,2.5,47.7,3.6
	c15.4,0.8,28.9,1.4,40.7,1.4s25.5-0.6,41-1.4c15.7-1.1,31.7-2.2,48.5-3.6s33.4-3.1,49.9-5.3s31.7-4.2,45.4-6.7
	c13.5-2.2,25-4.8,34.2-7.6c9.3-2.8,14.6-5.6,16.6-8.4c2.8-4.2,5.1-10.7,6.4-19.1c1.7-8.4,2.2-17.7,2.2-27.2S487,506.4,485.9,497.2z"
	/>
</svg>
