<?xml version="1.0" encoding="utf-8"?>
<!-- Generator: Adobe Illustrator 25.2.0, SVG Export Plug-In . SVG Version: 6.00 Build 0)  -->
<svg version="1.1" id="Слой_1" fill="#8a9af4" xmlns="http://www.w3.org/2000/svg" xmlns:xlink="http://www.w3.org/1999/xlink" x="0px" y="0px"
	  viewBox="0 0 86 88" style="enable-background:new 0 0 86 88;" xml:space="preserve">
<g transform="translate(0,-952.36218)">
	<path d="M23,952.4c-0.6,0-1,0.4-1,1v13.1c-3.4,0.5-6,3.4-6,6.9c0,3.9,3.1,7,7,7c3.9,0,7-3.1,7-7c0-3.5-2.6-6.4-6-6.9v-13.1
		C24,952.8,23.6,952.4,23,952.4z M63,952.4c-0.6,0-1,0.4-1,1v13.1c-3.4,0.5-6,3.4-6,6.9c0,3.9,3.1,7,7,7c3.9,0,7-3.1,7-7
		c0-3.5-2.6-6.4-6-6.9v-13.1C64,952.8,63.6,952.4,63,952.4z M9,958.4c-5,0-9,4-9,9v63.9c0,5,4,9,9,9H77c5,0,9-4,9-9v-63.9
		c0-5-4-9-9-9h-6c-0.5,0-1,0.5-1,1s0.5,1,1,1h6c3.9,0,7,3.1,7,7v19H2v-19c0-3.9,3.1-7,7-7h6c0.5,0,1-0.5,1-1s-0.5-1-1-1
		C15,958.4,9,958.4,9,958.4z M31,958.4c-0.6,0-1,0.4-1,1c0,0.6,0.4,1,1,1h24c0.6,0,1-0.4,1-1c0-0.6-0.4-1-1-1H31z M23,968.4
		c2.8,0,5,2.2,5,5s-2.2,5-5,5c-2.8,0-5-2.2-5-5S20.3,968.4,23,968.4z M63,968.4c2.8,0,5,2.2,5,5s-2.2,5-5,5c-2.8,0-5-2.2-5-5
		S60.3,968.4,63,968.4z M2,988.4h82v43c0,3.9-3.1,7-7,7H9c-3.9,0-7-3.1-7-7V988.4z"/>
</g>
</svg>
