<?xml version="1.0" encoding="utf-8"?>
<!-- Generator: Adobe Illustrator 25.1.0, SVG Export Plug-In . SVG Version: 6.00 Build 0)  -->
<svg version="1.1" id="Layer_1" xmlns="http://www.w3.org/2000/svg" xmlns:xlink="http://www.w3.org/1999/xlink" x="0px" y="0px"
	 width="488.7px" height="488.7px" viewBox="0 0 488.7 488.7" style="enable-background:new 0 0 488.7 488.7;" xml:space="preserve"
	>
<style type="text/css">
	.st0{fill:#455FED;}
	.st1{fill:#FF3C46;}
</style>
<polyline class="st0" points="488.7,380.1 488.7,379.5 488.7,325.8 488.7,271.5 488.7,217.2 488.7,162.9 488.7,108.6 488.7,54.3 
	488.7,0 434.4,0 380.1,0 325.8,0 271.5,0 217.2,0 162.9,0 108.6,0 54.3,0 0,0 0,54.3 0,108.6 0,162.9 0,217.2 0,271.5 0,325.8 
	0,380.1 0,450.3 0,469.5 0,488.7 38.4,488.7 162.9,364.2 201.3,325.8 217.2,309.9 244.2,283 282.6,244.6 309.9,217.2 325.8,201.3 
	364.2,162.9 380.1,147 380.1,108.6 341.7,108.6 325.8,124.5 287.4,162.9 271.5,178.8 244.2,206.2 217.2,179.2 200.9,162.9 
	162.9,124.9 146.6,108.6 108.6,108.6 108.6,147.4 124.1,162.9 162.9,201.7 178.4,217.2 205.8,244.6 178.8,271.5 162.9,287.4 
	124.5,325.8 54.3,396 54.3,380.1 54.3,325.8 54.3,271.5 54.3,217.2 54.3,162.9 54.3,108.6 54.3,54.3 108.6,54.3 162.9,54.3 
	217.2,54.3 271.5,54.3 325.8,54.3 380.1,54.3 434.4,54.3 434.4,108.6 434.4,162.9 434.4,217.2 434.4,271.5 434.4,325.8 434.4,379.7 
	434.4,380.1 "/>
<rect x="409.6" y="409.6" class="st1" width="79.2" height="79.2"/>
<polygon class="st0" points="174.1,434.4 380.1,434.4 380.1,488.7 120.1,488.7 "/>
</svg>
