<?xml version="1.0" encoding="utf-8"?>
<!-- Generator: Adobe Illustrator 25.2.0, SVG Export Plug-In . SVG Version: 6.00 Build 0)  -->
<svg version="1.1" id="Слой_1" fill="#455fed" xmlns="http://www.w3.org/2000/svg" xmlns:xlink="http://www.w3.org/1999/xlink" x="0px" y="0px"
	  viewBox="0 0 8.5 4.6" style="enable-background:new 0 0 8.5 4.6;" xml:space="preserve">
<g>
	<path d="M0.3,0C0.1,0,0,0.1,0,0.3v4.1c0,0.1,0.1,0.3,0.3,0.3c0,0,0,0,0,0h6c0.1,0,0.1,0,0.2-0.1l2-2.1c0.1-0.1,0.1-0.3,0-0.4
		l-2-2.1C6.4,0,6.3,0,6.2,0L0.3,0z M1.5,1.1c0.4,0,0.7,0.3,0.7,0.7S1.9,2.5,1.5,2.5c-0.4,0-0.7-0.3-0.7-0.7S1.2,1.1,1.5,1.1z M3,1.1
		c0.1,0,0.3,0.1,0.3,0.3c0,0,0,0.1,0,0.1l-1,1.7C2.2,3.3,2.1,3.4,1.9,3.3C1.8,3.2,1.8,3.1,1.8,2.9l0,0l1-1.7C2.8,1.2,2.9,1.1,3,1.1
		C3,1.1,3,1.1,3,1.1L3,1.1z M1.5,1.6c-0.1,0-0.1,0.1-0.1,0.2c0,0.1,0.1,0.1,0.1,0.1c0.1,0,0.2-0.1,0.2-0.1C1.7,1.7,1.6,1.6,1.5,1.6z
		 M6.1,1.7c0.2,0,0.3,0.1,0.5,0.2c0.3,0.3,0.3,0.7,0,0.9c-0.3,0.3-0.7,0.3-1,0c-0.3-0.3-0.3-0.7,0-0.9C5.7,1.7,5.9,1.7,6.1,1.7z
		 M3.6,2.2c0.4,0,0.7,0.3,0.7,0.7c0,0.4-0.3,0.7-0.7,0.7S2.9,3.2,2.9,2.9C2.9,2.5,3.2,2.2,3.6,2.2z M3.6,2.7c-0.1,0-0.2,0.1-0.2,0.2
		C3.4,3,3.5,3,3.6,3C3.6,3,3.7,3,3.7,2.9C3.7,2.8,3.6,2.7,3.6,2.7z"/>
</g>
</svg>
