<?xml version="1.0" encoding="utf-8"?><svg viewBox="0 0 256 40" xmlns="http://www.w3.org/2000/svg" xmlns:xlink="http://www.w3.org/1999/xlink"><style>:root>svg{display:none}:root>svg:target{display:block}</style><svg version="1.1" id="logo" x="0" y="0" viewBox="0 0 3131.8 488.7" xml:space="preserve" xmlns="http://www.w3.org/2000/svg"><style>.ast0{fill:#455fed}.ast1{fill:#ff3c46}.ast2{fill:#1c2850}.ast3{fill:#464646}</style><path class="ast0" d="M488.7 380.1V0H0v488.7h38.4l124.5-124.5 38.4-38.4 15.9-15.9 27-26.9 38.4-38.4 27.3-27.4 15.9-15.9 38.4-38.4 15.9-15.9v-38.4h-38.4l-15.9 15.9-38.4 38.4-15.9 15.9-27.3 27.4-27-27-16.3-16.3-38-38-16.3-16.3h-38v38.8l15.5 15.5 38.8 38.8 15.5 15.5 27.4 27.4-27 26.9-15.9 15.9-38.4 38.4L54.3 396V54.3h380.1V380.1"/><path class="ast1" d="M409.6 409.6h79.2v79.2h-79.2z"/><path class="ast0" d="M174.1 434.4h206v54.3h-260z"/><path class="ast2" d="M770 206c-18.3 35-32.9 59.4-77 59.4-8.8 0-20.4-.9-28.6-3V213c7.9 1.8 19.5 2.7 26.5 2.7 17.7 0 22.5-4.9 27.1-15.2l-91.6-133V55.3h54.8l63 98.3 55.4-98.3h51.8v12.2L770 206zM939.2 119.2c0 17.7 0 30.4 43.2 30.4 18.9 0 35.3-.3 54.2-2.7V55.3h54.8v204h-54.8v-63.9c-19.8 3-40.8 3-62.7 3h-8.5c-63.3 0-81-32.9-81-73.1v-70h54.8v63.9zM1332.3 104H1192v30.4h109.9v48.7H1192v27.4h140.3v48.7h-195.1v-204h195.1V104zM1578.6 204.4c0 33.5-18.9 60.9-87.1 60.9h-8.5c-36.8 0-76.7-2.1-111.4-6.1v-204h195.1V104h-140.3v30.4c19.8-3 40.8-3 62.7-3h8.5c63.3 0 81 27.4 81 60.9v12.1zm-152.2-21.6v31.1c20.1 1.8 43.5 2.7 56.3 2.7 47.2 0 47.2-7.6 47.2-18.3 0-10.4 0-18.3-49.3-18.3-18.9.1-35.4.4-54.2 2.8zM1604.8 259.2V247l90.7-191.8h54.8L1841 247v12.2h-49.3l-17.7-39.6h-102.6l-17.4 39.6h-49.2zm149.1-85.2l-31.1-69.7-31.1 69.7h62.2z"/><path class="ast0" d="M2054.4 104h-128.2v155.3h-54.8v-204h183V104zM2085.2 149.3c0-55.1 24.7-100.2 113.3-100.2h11c88.6 0 113.3 45.1 113.3 100.2v15.8c0 55.1-24.7 100.2-113.3 100.2h-11c-88.6 0-113.3-45.1-113.3-100.2v-15.8zm118.7 67.3c63.9 0 63.9-28.3 63.9-59.4 0-30.7 0-59.1-63.9-59.1s-63.9 28.3-63.9 59.1c0 31.1 0 59.4 63.9 59.4zM2485.5 206c-18.3 35-32.9 59.4-77 59.4-8.8 0-20.4-.9-28.6-3V213c7.9 1.8 19.5 2.7 26.5 2.7 17.7 0 22.5-4.9 27.1-15.2l-91.6-133V55.3h54.8l63 98.3 55.4-98.3h51.8v12.2L2485.5 206z"/><path class="ast2" d="M2561.3 232.8c0-15.8 7-28.9 32.3-28.9h2.4c25.3 0 32.3 13.1 32.3 28.9v3.7c0 15.8-7 28.9-32.3 28.9h-2.4c-25.3 0-32.3-13.1-32.3-28.9v-3.7zM2881 134.4c0 40.2-17.7 73.1-81 73.1h-8.5c-21.9 0-42.9 0-62.7-3v54.8H2674v-204c34.7-4 74.6-6.1 111.4-6.1h8.5c68.2 0 87.1 32.9 87.1 73.1v12.1zm-54.8-6.1c0-18 0-30.4-41.1-30.4-12.8 0-36.2.9-56.3 2.7V156c18.9 2.4 35.3 2.7 54.2 2.7 43.2.1 43.2-12.7 43.2-30.4zM3050.6 206c-18.3 35-32.9 59.4-77 59.4-8.8 0-20.4-.9-28.6-3V213c7.9 1.8 19.5 2.7 26.5 2.7 17.7 0 22.5-4.9 27.1-15.2l-91.6-133V55.3h54.8l63 98.3 55.4-98.3h51.8v12.2L3050.6 206z"/><g><path class="ast3" d="M670.5 439c-11 0-20.1-3.7-27.4-11-7.3-7.3-11-16.4-11-27.2s3.7-19.9 11-27.2c7.3-7.3 16.4-11 27.4-11 7.2 0 13.7 1.7 19.4 5.2 5.7 3.5 9.9 8.1 12.6 13.9l-7.9 4.5c-1.9-4.4-5.1-7.9-9.4-10.4-4.3-2.6-9.2-3.9-14.7-3.9-8.1 0-14.9 2.8-20.4 8.4-5.5 5.6-8.3 12.4-8.3 20.5s2.8 14.9 8.3 20.5c5.5 5.6 12.4 8.4 20.4 8.4 5.5 0 10.3-1.3 14.6-3.9 4.3-2.6 7.6-6.1 10.1-10.4l8 4.7c-3 5.8-7.4 10.5-13.3 13.9-5.8 3.2-12.3 5-19.4 5zM790.8 364.2v73h-9.6v-63.7h-42v63.7h-9.6v-73h61.2zM862.8 362.4c10.4 0 19.3 3.7 26.6 11.1 7.3 7.4 11 16.4 11 27.2 0 10.7-3.7 19.8-11 27.2-7.4 7.4-16.2 11.1-26.6 11.1-12.9 0-22.8-5.4-29.5-16.1v43.5h-9.6V364.2h9.6v14.3c6.7-10.7 16.6-16.1 29.5-16.1zm-21.2 58.8c5.5 5.6 12.4 8.4 20.4 8.4 8.1 0 14.9-2.8 20.4-8.4 5.5-5.6 8.3-12.4 8.3-20.5s-2.8-14.9-8.3-20.5c-5.5-5.6-12.4-8.4-20.4-8.4-8.1 0-14.9 2.8-20.4 8.4-5.5 5.6-8.3 12.4-8.3 20.5s2.8 14.9 8.3 20.5zM991.7 364.2h9.6v73h-9.6v-14.3c-6.7 10.7-16.5 16.1-29.5 16.1-10.4 0-19.3-3.7-26.6-11.1-7.4-7.4-11-16.4-11-27.2 0-10.7 3.7-19.8 11-27.2 7.3-7.4 16.2-11.1 26.6-11.1 12.9 0 22.8 5.4 29.5 16.1v-14.3zm-49.2 57c5.5 5.6 12.4 8.4 20.4 8.4 8.1 0 14.9-2.8 20.4-8.4 5.5-5.6 8.3-12.4 8.3-20.5s-2.8-14.9-8.3-20.5c-5.5-5.6-12.4-8.4-20.4-8.4-8.1 0-14.9 2.8-20.4 8.4-5.5 5.6-8.3 12.4-8.3 20.5s2.8 14.9 8.3 20.5zM1080.6 399.7c8 2.9 12 8.6 12 17.1 0 5.9-2 10.8-5.9 14.7-3.9 3.8-9.6 5.8-17 5.8h-35.5v-73h32.6c7.1 0 12.6 1.8 16.5 5.5 3.9 3.6 5.8 8.3 5.8 14.1 0 7.2-2.8 12.5-8.5 15.8zm-13.8-26.2h-22.9v22.2h22.9c8.5 0 12.7-3.8 12.7-11.4 0-3.4-1.1-6.1-3.3-8s-5.4-2.8-9.4-2.8zm2.9 54.4c4.3 0 7.6-1 9.9-3.1 2.3-2 3.4-4.9 3.4-8.6 0-3.4-1.1-6.1-3.4-8.1s-5.6-3-9.9-3h-25.8v22.8h25.8zM1180.9 427.9c-7.4 7.4-16.5 11-27.2 11s-19.8-3.7-27.2-11c-7.4-7.3-11.2-16.4-11.2-27.2s3.7-19.9 11.2-27.2c7.4-7.3 16.5-11 27.2-11s19.8 3.7 27.2 11c7.4 7.4 11.2 16.4 11.2 27.2s-3.8 19.9-11.2 27.2zm-47.7-6.7c5.5 5.6 12.4 8.4 20.4 8.4 8.1 0 14.9-2.8 20.4-8.4 5.5-5.6 8.3-12.4 8.3-20.5s-2.8-14.9-8.3-20.5c-5.5-5.6-12.4-8.4-20.4-8.4-8.1 0-14.9 2.8-20.4 8.4-5.5 5.6-8.3 12.4-8.3 20.5s2.7 14.9 8.3 20.5zM1266.3 364.2h9.6v73h-9.6v-27.7c-5.6 2.9-12.6 4.4-20.9 4.4-9.5 0-16.8-2.2-21.8-6.6-5-4.4-7.5-11-7.5-19.6v-23.4h9.6v23.4c0 6.1 1.6 10.5 4.8 13.2 3.2 2.7 8.1 4 14.6 4 7.6 0 14.6-1.4 21.2-4.2v-36.5zM1360.5 364.2h9.6v73h-9.6v-31.8h-42v31.8h-9.6v-73h9.6V396h42v-31.8zM1456.1 364.2h8.2v73h-9.6v-56.1l-43.4 56.1h-8.3v-73h9.6v56.2l43.5-56.2zM1556.1 437.2h-12.8l-36.5-35.2v35.2h-9.6v-73h9.6v32.3l34.7-32.3h13.1l-37.7 35 39.2 38zM1689.6 437.2h-12.8l-36.5-35.2v35.2h-9.6v-73h9.6v32.3l34.7-32.3h13.1l-37.7 35 39.2 38zM1769.1 427.9c-7.4 7.4-16.5 11-27.2 11s-19.8-3.7-27.2-11c-7.4-7.3-11.2-16.4-11.2-27.2s3.7-19.9 11.2-27.2c7.4-7.3 16.5-11 27.2-11s19.8 3.7 27.2 11c7.4 7.4 11.2 16.4 11.2 27.2s-3.8 19.9-11.2 27.2zm-47.7-6.7c5.5 5.6 12.4 8.4 20.4 8.4 8.1 0 14.9-2.8 20.4-8.4 5.5-5.6 8.3-12.4 8.3-20.5s-2.8-14.9-8.3-20.5c-5.5-5.6-12.4-8.4-20.4-8.4-8.1 0-14.9 2.8-20.4 8.4-5.5 5.6-8.3 12.4-8.3 20.5s2.8 14.9 8.3 20.5zM1865.7 364.2v73h-9.6v-63.7h-33v32.6c0 12.2-2.3 20.5-6.9 25.1-4.6 4.6-11 6.6-19.1 6v-9.1c5.5.6 9.7-.7 12.3-3.9 2.7-3.2 4-9.2 4-18.1v-41.9h52.3zM1958.4 364.2v73h-9.6v-63.7h-33v32.6c0 12.2-2.3 20.5-6.9 25.1-4.6 4.6-11 6.6-19.1 6v-9.1c5.5.6 9.7-.7 12.3-3.9 2.7-3.2 4-9.2 4-18.1v-41.9h52.3zM2024.9 362.4c10.8 0 19.5 3.8 26.2 11.5 6.7 7.6 10 16.7 10 27.1 0 1.1-.1 2.6-.3 4.5h-64.1c1 7.4 4.1 13.3 9.4 17.6 5.3 4.3 11.8 6.5 19.6 6.5 5.5 0 10.3-1.1 14.4-3.4 4-2.3 7.1-5.3 9.1-9l8.5 5c-3.2 5.2-7.6 9.2-13.1 12.3-5.5 3-11.9 4.5-19 4.5-11.5 0-20.8-3.6-28-10.8-7.2-7.2-10.8-16.4-10.8-27.4 0-10.9 3.6-20 10.7-27.3 7.1-7.4 16.3-11.1 27.4-11.1zm0 9.4c-7.6 0-13.9 2.3-19.1 6.8-5.1 4.5-8.2 10.4-9.1 17.6h54.5c-1-7.7-3.9-13.7-8.9-18-4.9-4.3-10.7-6.4-17.4-6.4zM2147.3 427.9h10.2v28.9h-9.6v-19.6h-59.6v19.6h-9.6v-28.9h8.9c5-6.5 7.4-15.7 7.4-27.6v-36.1h52.3v63.7zm-48 0h38.4v-54.3h-33v26.7c0 11.2-1.8 20.4-5.4 27.6zM2269.8 437.2h-11.7l-29.8-35v35h-9.6v-35l-29.8 35h-11.7l32.7-38-31.2-35h11.7l28.3 32.4v-32.4h9.6v32.4l28.3-32.4h11.7l-31.2 35 32.7 38zM2323.2 362.4c10.8 0 19.5 3.8 26.2 11.5 6.7 7.6 10 16.7 10 27.1 0 1.1-.1 2.6-.3 4.5H2295c1 7.4 4.1 13.3 9.4 17.6 5.3 4.3 11.8 6.5 19.6 6.5 5.5 0 10.3-1.1 14.4-3.4 4-2.3 7.1-5.3 9.1-9l8.5 5c-3.2 5.2-7.6 9.2-13.1 12.3-5.5 3-11.9 4.5-19 4.5-11.5 0-20.8-3.6-28-10.8-7.2-7.2-10.8-16.4-10.8-27.4 0-10.9 3.6-20 10.7-27.3 7.1-7.4 16.2-11.1 27.4-11.1zm0 9.4c-7.6 0-13.9 2.3-19.1 6.8-5.1 4.5-8.2 10.4-9.1 17.6h54.5c-1-7.7-3.9-13.7-8.9-18-5-4.3-10.8-6.4-17.4-6.4zM2440.3 364.2h8.2v73h-9.6v-56.1l-43.4 56.1h-8.3v-73h9.6v56.2l43.5-56.2zm-41.4-11.7V344h38v8.5h-38zM2583.4 364.2h8.2v73h-9.6v-56.1l-43.4 56.1h-8.3v-73h9.6v56.2l43.5-56.2zM2731.4 384.2c5 2.1 8.9 5.4 11.9 9.7 3 4.3 4.5 9.3 4.5 14.8 0 7.9-2.8 14.6-8.3 20.1-5.5 5.5-12.3 8.3-20.1 8.3h-44.5V335h41.2c7.6 0 14.1 2.7 19.4 8.1 5.4 5.4 8 11.9 8 19.3-.1 9.6-4.1 16.8-12.1 21.8zm-15.4-39.6h-31v35.6h31c4.8 0 8.8-1.7 12.2-5.2 3.4-3.5 5-7.7 5-12.6 0-4.9-1.7-9.1-5-12.6s-7.5-5.2-12.2-5.2zm3.3 83c5.1 0 9.4-1.8 12.9-5.5 3.6-3.7 5.3-8.1 5.3-13.4 0-5.2-1.8-9.6-5.3-13.3-3.6-3.7-7.9-5.5-12.9-5.5H2685v37.7h34.3zM2830 335h10.5l-34 79.9c-3.4 8.2-7.7 14.1-13 17.7-5.3 3.6-11.8 5.2-19.6 4.7V428c5.4.6 9.9-.2 13.5-2.4 3.5-2.2 6.5-6 8.8-11.5l2.1-4.9-35.2-74.1h10.5l29.6 62.6L2830 335zM2905.9 384.3c5.6 2.1 10 5.4 13.1 9.8 3.1 4.4 4.7 9.5 4.7 15.5 0 8.6-3.2 15.6-9.6 21.1-6.4 5.5-15 8.2-25.8 8.2-9.7 0-17.5-2.2-23.4-6.6-5.8-4.4-9.9-9.9-12.1-16.5l8.8-5c1.3 5.2 4 9.5 8.2 13.1 4.2 3.6 10.4 5.3 18.5 5.3 8 0 14.2-1.8 18.5-5.5 4.4-3.6 6.6-8.4 6.6-14.2 0-5.8-2-10.6-6.1-14.2-4-3.6-9.6-5.5-16.7-5.5h-11.7v-9.6h8c6.9 0 12.4-1.8 16.5-5.3s6.1-8 6.1-13.6c0-5.5-2-9.9-5.9-13.4-3.9-3.5-9.3-5.2-16.1-5.2-12.6 0-20.8 5.4-24.8 16.1l-8.5-5c2.5-6.2 6.5-11.2 12-15 5.5-3.8 12.6-5.7 21.2-5.7 9.6 0 17.4 2.7 23.4 8.1 5.9 5.4 8.9 12.1 8.9 20.2.2 10.4-4.4 18-13.8 22.9zM3013.4 427.9c-7.4 7.4-16.5 11-27.2 11s-19.8-3.7-27.2-11c-7.4-7.3-11.2-16.4-11.2-27.2s3.7-19.9 11.2-27.2c7.4-7.3 16.5-11 27.2-11s19.8 3.7 27.2 11c7.4 7.4 11.2 16.4 11.2 27.2s-3.7 19.9-11.2 27.2zm-47.6-6.7c5.5 5.6 12.4 8.4 20.4 8.4 8.1 0 14.9-2.8 20.4-8.4 5.5-5.6 8.3-12.4 8.3-20.5s-2.8-14.9-8.3-20.5c-5.5-5.6-12.4-8.4-20.4-8.4-8.1 0-14.9 2.8-20.4 8.4-5.5 5.6-8.3 12.4-8.3 20.5s2.7 14.9 8.3 20.5zM3099.5 399.7c8 2.9 12 8.6 12 17.1 0 5.9-2 10.8-5.9 14.7-3.9 3.8-9.6 5.8-17 5.8h-35.5v-73h32.6c7.1 0 12.6 1.8 16.5 5.5 3.9 3.6 5.8 8.3 5.8 14.1 0 7.2-2.8 12.5-8.5 15.8zm-13.9-26.2h-22.9v22.2h22.9c8.5 0 12.7-3.8 12.7-11.4 0-3.4-1.1-6.1-3.3-8s-5.3-2.8-9.4-2.8zm3 54.4c4.3 0 7.6-1 9.9-3.1 2.3-2 3.4-4.9 3.4-8.6 0-3.4-1.1-6.1-3.4-8.1s-5.6-3-9.9-3h-25.8v22.8h25.8z"/></g></svg></svg>