<?xml version="1.0" encoding="utf-8"?>
<!-- Generator: Adobe Illustrator 25.1.0, SVG Export Plug-In . SVG Version: 6.00 Build 0)  -->
<svg version="1.1" fill='#fff' id="Layer_1" xmlns="http://www.w3.org/2000/svg" xmlns:xlink="http://www.w3.org/1999/xlink" x="0px" y="0px"
	  viewBox="0 0 836.7 957.6" style="enable-background:new 0 0 836.7 957.6;" xml:space="preserve"
	>
<path d="M134,731.1c-25.1,8-52.4-2.8-65-25.8c-20.3,15.7-48.6,15.9-69,0.5c0.3,120.7,0.5,181.1,0.5,181.1c20.4,0.6,40,8.3,55.3,21.7
	c85.4-87.4,128-131.1,128-131.1C158.2,775.9,137.3,756.5,134,731.1z"/>
<path d="M0.9,909.9c-0.5,26.1-0.7,39.2-0.7,39.2c0.7,9.6,4.6,11.1,11.6,4.4c19.1-19,28.6-28.5,28.6-28.5
	C28.6,917,15.1,911.9,0.9,909.9z"/>
<path d="M91.3,691.8l0.6,1c6.7,12.1,21,17.8,34.3,13.6l9.4-3L374,172.5l-55.5,10.3L91.3,691.8z"/>
<path d="M342.2,423.7l5.8-13l5.9-13.3l6-13.6l6.2-13.9l6.3-14.2l6.4-14.5l6.6-14.8l6.7-15.1L399,296l7-15.7l7.1-15.9l7.2-16.3
	l7.3-16.5l7.5-16.8l7.6-17.1l7.7-17.4l7.9-17.7l8-18l8.1-18.3l8.3-18.6L530.5,0L301,43.3L195.9,279.9L112.3,468l-30.7,69.1
	l-8.5,19.2l-2.8,6.3l-4.1,9.3l-4.4,9.8l-3.1,6.9l-3.7,8.4l-5.1,11.4l-1.1,2.5L41.2,628l-0.4,1l-4.9,11l-0.3,0.7l-0.9,2.1l-18.8,42.3
	c11,8.3,26.3,8.1,37.2-0.3l21.2-16.5l73.4-165.3l3-6.7l183-411.9l118.2-22.3L306.4,389.5l-3,6.7L159,721.4l0.8,6.2
	c1.7,13,12.6,23.1,25.8,24l10.7,0.7l20-45.2l0.7-1.5l0.7-1.5l1.2-2.8l4-8.9l0-0.1l3.3-7.5l3.9-8.8l1.6-3.5l2.1-4.6l2.9-6.6l2.6-5.8
	l1.4-3.1l2.8-6.3l4.1-9.3l1.2-2.7l7.4-16.7l1.7-3.8l0.4-0.9l83.6-188.1L342.2,423.7z"/>
<polygon points="413.4,92.6 349.7,104.6 325.8,158.2 389.4,146.5 "/>
<g>
	<path d="M566.9,128.9h-74.6c-6.2,16.7-38.2,101-54.4,142.9c6.8,27.4,9,33.3,13.3,50.7s7.6,30,10.1,37.9l79.4,257.6H285.1
		c-0.2,0-60.8,152-60.8,152h361.3l39.5,140h211.6L566.9,128.9z"/>
</g>
</svg>
