<?xml version="1.0" encoding="utf-8"?>
<!-- Generator: Adobe Illustrator 25.1.0, SVG Export Plug-In . SVG Version: 6.00 Build 0)  -->
<svg version="1.1" fill="#fff" id="Layer_1" xmlns="http://www.w3.org/2000/svg" xmlns:xlink="http://www.w3.org/1999/xlink" x="0px" y="0px"
	  viewBox="0 0 941.8 928.7" style="enable-background:new 0 0 941.8 928.7;" xml:space="preserve"
	>
<path d="M507.5,709.3c-25.5,6.7-52.1-5.6-63.6-29.2c-21.1,14.6-49.4,13.4-68.9-3.1c-6,120.6-9,180.9-9,180.9
	c20.4,1.7,39.5,10.4,54.1,24.6c89.8-82.8,134.8-124.2,134.8-124.2C529.3,755.3,509.5,734.8,507.5,709.3z"/>
<path d="M365.2,880.8c-1.8,26.1-2.8,39.1-2.8,39.1c0.2,9.6,4,11.3,11.3,5c20.1-18,30.1-27,30.1-27
	C392.5,889.4,379.2,883.6,365.2,880.8z"/>
<path d="M466.9,667.8l0.5,1c6,12.5,20.1,18.9,33.5,15.4l9.6-2.5l266-517.6l-56,7.3L466.9,667.8z"/>
<path d="M731.5,413.3l6.5-12.7l6.6-13l6.7-13.3l6.9-13.6l7-13.9l7.2-14.1l7.3-14.4l7.5-14.7l7.6-15l7.8-15.3l7.9-15.6l8.1-15.9
	l8.2-16.1l8.3-16.4l8.5-16.7l8.6-17l8.8-17.3l8.9-17.6l9.1-17.9l9.2-18.1L941.8,0L710.3,31.2L593,261.9l-93.3,183.4l-34.3,67.4
	l-9.5,18.7l-3.1,6.2l-4.6,9.1l-4.9,9.5l-3.4,6.7l-4.2,8.2l-5.7,11.1l-1.2,2.4l-8.5,16.7l-0.5,1l-5.5,10.7l-0.3,0.7l-1,2l-21,41.2
	c10.5,8.8,25.9,9.5,37.2,1.7l22.1-15.3l82-161.2l3.3-6.5L740.8,74L860,57.9L697.6,377.3l-3.3,6.5L533,700.9l0.5,6.3
	c1.1,13.1,11.3,23.8,24.5,25.3l10.7,1.2l22.4-44l0.7-1.4l0.7-1.4l1.4-2.7l4.4-8.7l0-0.1l3.7-7.3l4.4-8.6l1.7-3.4l2.3-4.5l3.3-6.4
	l2.9-5.7l1.6-3.1l3.1-6.2l4.6-9.1l1.3-2.6l8.3-16.3l1.9-3.7l0.5-0.9l93.3-183.4L731.5,413.3z"/>
<polygon points="820,86.3 755.8,95 729.1,147.3 793.2,138.9 "/>
<g>
	<polygon points="429.1,519.5 192.9,35.2 0,35.2 0,875.2 192,875.2 192,494.5 314,733.7 	"/>
	<polygon points="709,523.9 709,875.2 901,875.2 901,138.9 	"/>
</g>
</svg>
