<?xml version="1.0" encoding="utf-8"?>
<!-- Generator: Adobe Illustrator 25.1.0, SVG Export Plug-In . SVG Version: 6.00 Build 0)  -->
<svg version="1.1" fill="#fff" id="Layer_1" xmlns="http://www.w3.org/2000/svg" xmlns:xlink="http://www.w3.org/1999/xlink" x="0px" y="0px"
	  viewBox="0 0 772.9 923" style="enable-background:new 0 0 772.9 923;" xml:space="preserve">
<g>
	<path d="M690,184.9c-4.7,6.9-111.3,166.7-125.3,189.9c6.9,30.5,6.9,55.8,6.9,93.6c0,169.4-72.7,276.7-187.9,276.7
		c-23.9,0-46-4.6-66-13.5c-4.6,7.5-89.2,127.9-98.7,143.3c45.9,19,108.9,35.1,164.7,35.1c227.8,0,383.6-165.6,383.6-441.6
		C767.3,352.1,739.4,256.5,690,184.9z"/>
	<path d="M194.6,508.7c-0.2-4.1,1.1-20.3,1.1-40.3C195.4,299,268.4,199,383.6,199c9.4,0,18.5,0.7,27.3,2
		c5-8.6,89.7-145.5,92.7-150.3c-37.1-10.9-77.3-16.5-120-16.5C155.8,34.2,0,192.4,0,468.4C0,560,21.4,650.2,52.6,715.5
		C60.8,704,187,519.1,194.6,508.7z"/>
</g>
<path d="M570.7,117.2l-403,600.9l0.3,0.9c3.6,11,14.5,17.9,26.1,16.5l8.2-1l415.6-617.2L570.7,117.2z"/>
<path d="M219.4,537.7l-35.8,52l-10,14.5l-3.3,4.8l-4.8,7l-5.1,7.4l-3.6,5.2l-4.4,6.4l-5.9,8.6l-1.3,1.9l-8.9,12.9l-0.5,0.7l-5.7,8.3
	l-0.4,0.5l-1.1,1.6L106.7,701c7.7,8.5,20.4,10.8,30.6,5.5l20-10.2L243,572l3.5-5L598.3,38.8h100.5
	c-159.3,240.3-316.6,477-480.1,714.1l-0.3,5.2c-0.6,11,6.8,20.9,17.5,23.6l8.7,2.2l23.4-33.9l0.8-1.1l0.8-1.1l1.4-2.1l4.6-6.7l0-0.1
	l3.9-5.6l4.6-6.6l1.8-2.7l2.4-3.5l3.4-4.9l3-4.4l1.6-2.4l3.3-4.8l4.8-7l1.4-2l8.7-12.5l2-2.8l0.5-0.7
	C447,490.5,564.5,317.4,688.6,122.2l9.3-13.5l9.5-13.8l9.6-14L772.9,0H577.8L316.9,396.2L219.4,537.7z"/>
<path d="M53.3,915.2c-0.9,8,2,9.8,8.8,5.4c18.6-12.6,27.9-19,27.9-19c-8.5-8.4-18.8-14.7-30.1-18.5
	C55.5,904.5,53.3,915.2,53.3,915.2z"/>
<path d="M196.7,757c-21.9,2.7-42.6-10.4-49.4-31.3c-19.1,9.8-42.4,5.6-56.7-10.3c-18.3,99.2-27.4,148.8-27.4,148.8
	c16.7,3.7,31.5,13,42.1,26.4c83.6-58.5,125.3-87.8,125.3-87.8C209.7,797.6,195.5,778.4,196.7,757z"/>
</svg>
