<?xml version="1.0" encoding="utf-8"?>
<!-- Generator: Adobe Illustrator 25.2.1, SVG Export Plug-In . SVG Version: 6.00 Build 0)  -->
<svg version="1.1" id="Layer_1" xmlns="http://www.w3.org/2000/svg" xmlns:xlink="http://www.w3.org/1999/xlink" x="0px" y="0px"
	 width="256px" height="40px" viewBox="0 0 3131.8 488.7" style="enable-background:new 0 0 3131.8 488.7;"
	 xml:space="preserve">
<style type="text/css">
	.st0{fill:#455FED;}
	.st1{fill:#FF3C46;}
	.st2{fill:#1C2850;}
	.st3{fill:#464646;}
</style>
<polyline class="st0" points="488.7,380.1 488.7,379.5 488.7,325.8 488.7,271.5 488.7,217.2 488.7,162.9 488.7,108.6 488.7,54.3 
	488.7,0 434.4,0 380.1,0 325.8,0 271.5,0 217.2,0 162.9,0 108.6,0 54.3,0 0,0 0,54.3 0,108.6 0,162.9 0,217.2 0,271.5 0,325.8 
	0,380.1 0,450.3 0,469.5 0,488.7 38.4,488.7 162.9,364.2 201.3,325.8 217.2,309.9 244.2,283 282.6,244.6 309.9,217.2 325.8,201.3 
	364.2,162.9 380.1,147 380.1,108.6 341.7,108.6 325.8,124.5 287.4,162.9 271.5,178.8 244.2,206.2 217.2,179.2 200.9,162.9 
	162.9,124.9 146.6,108.6 108.6,108.6 108.6,147.4 124.1,162.9 162.9,201.7 178.4,217.2 205.8,244.6 178.8,271.5 162.9,287.4 
	124.5,325.8 54.3,396 54.3,380.1 54.3,325.8 54.3,271.5 54.3,217.2 54.3,162.9 54.3,108.6 54.3,54.3 108.6,54.3 162.9,54.3 
	217.2,54.3 271.5,54.3 325.8,54.3 380.1,54.3 434.4,54.3 434.4,108.6 434.4,162.9 434.4,217.2 434.4,271.5 434.4,325.8 434.4,379.7 
	434.4,380.1 "/>
<rect x="409.6" y="409.6" class="st1" width="79.2" height="79.2"/>
<polygon class="st0" points="174.1,434.4 380.1,434.4 380.1,488.7 120.1,488.7 "/>
<g>
	<path class="st2" d="M770,206c-18.3,35-32.9,59.4-77,59.4c-8.8,0-20.4-0.9-28.6-3V213c7.9,1.8,19.5,2.7,26.5,2.7
		c17.7,0,22.5-4.9,27.1-15.2l-91.6-133V55.3h54.8l63,98.3l55.4-98.3h51.8v12.2L770,206z"/>
	<path class="st2" d="M939.2,119.2c0,17.7,0,30.4,43.2,30.4c18.9,0,35.3-0.3,54.2-2.7V55.3h54.8v204h-54.8v-63.9
		c-19.8,3-40.8,3-62.7,3h-8.5c-63.3,0-81-32.9-81-73.1v-70h54.8V119.2z"/>
	<path class="st2" d="M1332.3,104h-140.3v30.4h109.9v48.7h-109.9v27.4h140.3v48.7h-195.1v-204h195.1V104z"/>
	<path class="st2" d="M1578.6,204.4c0,33.5-18.9,60.9-87.1,60.9h-8.5c-36.8,0-76.7-2.1-111.4-6.1v-204h195.1V104h-140.3v30.4
		c19.8-3,40.8-3,62.7-3h8.5c63.3,0,81,27.4,81,60.9V204.4z M1426.4,182.8v31.1c20.1,1.8,43.5,2.7,56.3,2.7
		c47.2,0,47.2-7.6,47.2-18.3c0-10.4,0-18.3-49.3-18.3C1461.7,180.1,1445.2,180.4,1426.4,182.8z"/>
	<path class="st2" d="M1604.8,259.2v-12.2l90.7-191.8h54.8l90.7,191.8v12.2h-49.3l-17.7-39.6h-102.6l-17.4,39.6H1604.8z M1753.9,174
		l-31.1-69.7l-31.1,69.7H1753.9z"/>
	<path class="st0" d="M2054.4,104h-128.2v155.3h-54.8v-204h183V104z"/>
	<path class="st0" d="M2085.2,149.3c0-55.1,24.7-100.2,113.3-100.2h11c88.6,0,113.3,45.1,113.3,100.2v15.8
		c0,55.1-24.7,100.2-113.3,100.2h-11c-88.6,0-113.3-45.1-113.3-100.2V149.3z M2203.9,216.6c63.9,0,63.9-28.3,63.9-59.4
		c0-30.7,0-59.1-63.9-59.1s-63.9,28.3-63.9,59.1C2140,188.3,2140,216.6,2203.9,216.6z"/>
	<path class="st0" d="M2485.5,206c-18.3,35-32.9,59.4-77,59.4c-8.8,0-20.4-0.9-28.6-3V213c7.9,1.8,19.5,2.7,26.5,2.7
		c17.7,0,22.5-4.9,27.1-15.2l-91.6-133V55.3h54.8l63,98.3l55.4-98.3h51.8v12.2L2485.5,206z"/>
	<path class="st2" d="M2561.3,232.8c0-15.8,7-28.9,32.3-28.9h2.4c25.3,0,32.3,13.1,32.3,28.9v3.7c0,15.8-7,28.9-32.3,28.9h-2.4
		c-25.3,0-32.3-13.1-32.3-28.9V232.8z"/>
	<path class="st2" d="M2881,134.4c0,40.2-17.7,73.1-81,73.1h-8.5c-21.9,0-42.9,0-62.7-3v54.8H2674v-204c34.7-4,74.6-6.1,111.4-6.1
		h8.5c68.2,0,87.1,32.9,87.1,73.1V134.4z M2826.2,128.3c0-18,0-30.4-41.1-30.4c-12.8,0-36.2,0.9-56.3,2.7V156
		c18.9,2.4,35.3,2.7,54.2,2.7C2826.2,158.8,2826.2,146,2826.2,128.3z"/>
	<path class="st2" d="M3050.6,206c-18.3,35-32.9,59.4-77,59.4c-8.8,0-20.4-0.9-28.6-3V213c7.9,1.8,19.5,2.7,26.5,2.7
		c17.7,0,22.5-4.9,27.1-15.2l-91.6-133V55.3h54.8l63,98.3l55.4-98.3h51.8v12.2L3050.6,206z"/>
</g>
<g>
	<path class="st3" d="M670.5,439c-11,0-20.1-3.7-27.4-11c-7.3-7.3-11-16.4-11-27.2s3.7-19.9,11-27.2c7.3-7.3,16.4-11,27.4-11
		c7.2,0,13.7,1.7,19.4,5.2c5.7,3.5,9.9,8.1,12.6,13.9l-7.9,4.5c-1.9-4.4-5.1-7.9-9.4-10.4c-4.3-2.6-9.2-3.9-14.7-3.9
		c-8.1,0-14.9,2.8-20.4,8.4c-5.5,5.6-8.3,12.4-8.3,20.5c0,8.1,2.8,14.9,8.3,20.5c5.5,5.6,12.4,8.4,20.4,8.4c5.5,0,10.3-1.3,14.6-3.9
		c4.3-2.6,7.6-6.1,10.1-10.4l8,4.7c-3,5.8-7.4,10.5-13.3,13.9C684.1,437.2,677.6,439,670.5,439z"/>
	<path class="st3" d="M790.8,364.2v73h-9.6v-63.7h-42v63.7h-9.6v-73H790.8z"/>
	<path class="st3" d="M862.8,362.4c10.4,0,19.3,3.7,26.6,11.1c7.3,7.4,11,16.4,11,27.2c0,10.7-3.7,19.8-11,27.2
		c-7.4,7.4-16.2,11.1-26.6,11.1c-12.9,0-22.8-5.4-29.5-16.1v43.5h-9.6V364.2h9.6v14.3C840,367.8,849.9,362.4,862.8,362.4z
		 M841.6,421.2c5.5,5.6,12.4,8.4,20.4,8.4c8.1,0,14.9-2.8,20.4-8.4c5.5-5.6,8.3-12.4,8.3-20.5c0-8.1-2.8-14.9-8.3-20.5
		c-5.5-5.6-12.4-8.4-20.4-8.4c-8.1,0-14.9,2.8-20.4,8.4c-5.5,5.6-8.3,12.4-8.3,20.5C833.3,408.8,836.1,415.6,841.6,421.2z"/>
	<path class="st3" d="M991.7,364.2h9.6v73h-9.6v-14.3c-6.7,10.7-16.5,16.1-29.5,16.1c-10.4,0-19.3-3.7-26.6-11.1
		c-7.4-7.4-11-16.4-11-27.2c0-10.7,3.7-19.8,11-27.2c7.3-7.4,16.2-11.1,26.6-11.1c12.9,0,22.8,5.4,29.5,16.1V364.2z M942.5,421.2
		c5.5,5.6,12.4,8.4,20.4,8.4c8.1,0,14.9-2.8,20.4-8.4c5.5-5.6,8.3-12.4,8.3-20.5c0-8.1-2.8-14.9-8.3-20.5
		c-5.5-5.6-12.4-8.4-20.4-8.4c-8.1,0-14.9,2.8-20.4,8.4c-5.5,5.6-8.3,12.4-8.3,20.5C934.2,408.8,937,415.6,942.5,421.2z"/>
	<path class="st3" d="M1080.6,399.7c8,2.9,12,8.6,12,17.1c0,5.9-2,10.8-5.9,14.7c-3.9,3.8-9.6,5.8-17,5.8h-35.5v-73h32.6
		c7.1,0,12.6,1.8,16.5,5.5c3.9,3.6,5.8,8.3,5.8,14.1C1089.1,391.1,1086.3,396.4,1080.6,399.7z M1066.8,373.5h-22.9v22.2h22.9
		c8.5,0,12.7-3.8,12.7-11.4c0-3.4-1.1-6.1-3.3-8S1070.8,373.5,1066.8,373.5z M1069.7,427.9c4.3,0,7.6-1,9.9-3.1
		c2.3-2,3.4-4.9,3.4-8.6c0-3.4-1.1-6.1-3.4-8.1c-2.3-2-5.6-3-9.9-3h-25.8v22.8H1069.7z"/>
	<path class="st3" d="M1180.9,427.9c-7.4,7.4-16.5,11-27.2,11c-10.7,0-19.8-3.7-27.2-11c-7.4-7.3-11.2-16.4-11.2-27.2
		s3.7-19.9,11.2-27.2c7.4-7.3,16.5-11,27.2-11c10.7,0,19.8,3.7,27.2,11c7.4,7.4,11.2,16.4,11.2,27.2S1188.3,420.6,1180.9,427.9z
		 M1133.2,421.2c5.5,5.6,12.4,8.4,20.4,8.4c8.1,0,14.9-2.8,20.4-8.4c5.5-5.6,8.3-12.4,8.3-20.5c0-8.1-2.8-14.9-8.3-20.5
		c-5.5-5.6-12.4-8.4-20.4-8.4c-8.1,0-14.9,2.8-20.4,8.4c-5.5,5.6-8.3,12.4-8.3,20.5C1124.9,408.8,1127.6,415.6,1133.2,421.2z"/>
	<path class="st3" d="M1266.3,364.2h9.6v73h-9.6v-27.7c-5.6,2.9-12.6,4.4-20.9,4.4c-9.5,0-16.8-2.2-21.8-6.6c-5-4.4-7.5-11-7.5-19.6
		v-23.4h9.6v23.4c0,6.1,1.6,10.5,4.8,13.2c3.2,2.7,8.1,4,14.6,4c7.6,0,14.6-1.4,21.2-4.2V364.2z"/>
	<path class="st3" d="M1360.5,364.2h9.6v73h-9.6v-31.8h-42v31.8h-9.6v-73h9.6V396h42V364.2z"/>
	<path class="st3" d="M1456.1,364.2h8.2v73h-9.6v-56.1l-43.4,56.1h-8.3v-73h9.6v56.2L1456.1,364.2z"/>
	<path class="st3" d="M1556.1,437.2h-12.8l-36.5-35.2v35.2h-9.6v-73h9.6v32.3l34.7-32.3h13.1l-37.7,35L1556.1,437.2z"/>
	<path class="st3" d="M1689.6,437.2h-12.8l-36.5-35.2v35.2h-9.6v-73h9.6v32.3l34.7-32.3h13.1l-37.7,35L1689.6,437.2z"/>
	<path class="st3" d="M1769.1,427.9c-7.4,7.4-16.5,11-27.2,11c-10.7,0-19.8-3.7-27.2-11c-7.4-7.3-11.2-16.4-11.2-27.2
		s3.7-19.9,11.2-27.2c7.4-7.3,16.5-11,27.2-11c10.7,0,19.8,3.7,27.2,11c7.4,7.4,11.2,16.4,11.2,27.2S1776.5,420.6,1769.1,427.9z
		 M1721.4,421.2c5.5,5.6,12.4,8.4,20.4,8.4c8.1,0,14.9-2.8,20.4-8.4c5.5-5.6,8.3-12.4,8.3-20.5c0-8.1-2.8-14.9-8.3-20.5
		c-5.5-5.6-12.4-8.4-20.4-8.4c-8.1,0-14.9,2.8-20.4,8.4c-5.5,5.6-8.3,12.4-8.3,20.5C1713.1,408.8,1715.9,415.6,1721.4,421.2z"/>
	<path class="st3" d="M1865.7,364.2v73h-9.6v-63.7h-33v32.6c0,12.2-2.3,20.5-6.9,25.1c-4.6,4.6-11,6.6-19.1,6v-9.1
		c5.5,0.6,9.7-0.7,12.3-3.9c2.7-3.2,4-9.2,4-18.1v-41.9H1865.7z"/>
	<path class="st3" d="M1958.4,364.2v73h-9.6v-63.7h-33v32.6c0,12.2-2.3,20.5-6.9,25.1c-4.6,4.6-11,6.6-19.1,6v-9.1
		c5.5,0.6,9.7-0.7,12.3-3.9c2.7-3.2,4-9.2,4-18.1v-41.9H1958.4z"/>
	<path class="st3" d="M2024.9,362.4c10.8,0,19.5,3.8,26.2,11.5c6.7,7.6,10,16.7,10,27.1c0,1.1-0.1,2.6-0.3,4.5h-64.1
		c1,7.4,4.1,13.3,9.4,17.6c5.3,4.3,11.8,6.5,19.6,6.5c5.5,0,10.3-1.1,14.4-3.4c4-2.3,7.1-5.3,9.1-9l8.5,5
		c-3.2,5.2-7.6,9.2-13.1,12.3c-5.5,3-11.9,4.5-19,4.5c-11.5,0-20.8-3.6-28-10.8c-7.2-7.2-10.8-16.4-10.8-27.4
		c0-10.9,3.6-20,10.7-27.3C2004.6,366.1,2013.8,362.4,2024.9,362.4z M2024.9,371.8c-7.6,0-13.9,2.3-19.1,6.8
		c-5.1,4.5-8.2,10.4-9.1,17.6h54.5c-1-7.7-3.9-13.7-8.9-18C2037.4,373.9,2031.6,371.8,2024.9,371.8z"/>
	<path class="st3" d="M2147.3,427.9h10.2v28.9h-9.6v-19.6h-59.6v19.6h-9.6v-28.9h8.9c5-6.5,7.4-15.7,7.4-27.6v-36.1h52.3V427.9z
		 M2099.3,427.9h38.4v-54.3h-33v26.7C2104.7,411.5,2102.9,420.7,2099.3,427.9z"/>
	<path class="st3" d="M2269.8,437.2h-11.7l-29.8-35v35h-9.6v-35l-29.8,35h-11.7l32.7-38l-31.2-35h11.7l28.3,32.4v-32.4h9.6v32.4
		l28.3-32.4h11.7l-31.2,35L2269.8,437.2z"/>
	<path class="st3" d="M2323.2,362.4c10.8,0,19.5,3.8,26.2,11.5c6.7,7.6,10,16.7,10,27.1c0,1.1-0.1,2.6-0.3,4.5h-64.1
		c1,7.4,4.1,13.3,9.4,17.6c5.3,4.3,11.8,6.5,19.6,6.5c5.5,0,10.3-1.1,14.4-3.4c4-2.3,7.1-5.3,9.1-9l8.5,5
		c-3.2,5.2-7.6,9.2-13.1,12.3c-5.5,3-11.9,4.5-19,4.5c-11.5,0-20.8-3.6-28-10.8c-7.2-7.2-10.8-16.4-10.8-27.4
		c0-10.9,3.6-20,10.7-27.3C2302.9,366.1,2312,362.4,2323.2,362.4z M2323.2,371.8c-7.6,0-13.9,2.3-19.1,6.8
		c-5.1,4.5-8.2,10.4-9.1,17.6h54.5c-1-7.7-3.9-13.7-8.9-18C2335.6,373.9,2329.8,371.8,2323.2,371.8z"/>
	<path class="st3" d="M2440.3,364.2h8.2v73h-9.6v-56.1l-43.4,56.1h-8.3v-73h9.6v56.2L2440.3,364.2z M2398.9,352.5v-8.5h38v8.5
		H2398.9z"/>
	<path class="st3" d="M2583.4,364.2h8.2v73h-9.6v-56.1l-43.4,56.1h-8.3v-73h9.6v56.2L2583.4,364.2z"/>
	<path class="st3" d="M2731.4,384.2c5,2.1,8.9,5.4,11.9,9.7c3,4.3,4.5,9.3,4.5,14.8c0,7.9-2.8,14.6-8.3,20.1
		c-5.5,5.5-12.3,8.3-20.1,8.3h-44.5V335h41.2c7.6,0,14.1,2.7,19.4,8.1c5.4,5.4,8,11.9,8,19.3C2743.4,372,2739.4,379.2,2731.4,384.2z
		 M2716,344.6h-31v35.6h31c4.8,0,8.8-1.7,12.2-5.2c3.4-3.5,5-7.7,5-12.6c0-4.9-1.7-9.1-5-12.6S2720.7,344.6,2716,344.6z
		 M2719.3,427.6c5.1,0,9.4-1.8,12.9-5.5c3.6-3.7,5.3-8.1,5.3-13.4c0-5.2-1.8-9.6-5.3-13.3c-3.6-3.7-7.9-5.5-12.9-5.5H2685v37.7
		H2719.3z"/>
	<path class="st3" d="M2830,335h10.5l-34,79.9c-3.4,8.2-7.7,14.1-13,17.7c-5.3,3.6-11.8,5.2-19.6,4.7v-9.3c5.4,0.6,9.9-0.2,13.5-2.4
		c3.5-2.2,6.5-6,8.8-11.5l2.1-4.9l-35.2-74.1h10.5l29.6,62.6L2830,335z"/>
	<path class="st3" d="M2905.9,384.3c5.6,2.1,10,5.4,13.1,9.8c3.1,4.4,4.7,9.5,4.7,15.5c0,8.6-3.2,15.6-9.6,21.1
		c-6.4,5.5-15,8.2-25.8,8.2c-9.7,0-17.5-2.2-23.4-6.6c-5.8-4.4-9.9-9.9-12.1-16.5l8.8-5c1.3,5.2,4,9.5,8.2,13.1
		c4.2,3.6,10.4,5.3,18.5,5.3c8,0,14.2-1.8,18.5-5.5c4.4-3.6,6.6-8.4,6.6-14.2c0-5.8-2-10.6-6.1-14.2c-4-3.6-9.6-5.5-16.7-5.5h-11.7
		v-9.6h8c6.9,0,12.4-1.8,16.5-5.3c4.1-3.5,6.1-8,6.1-13.6c0-5.5-2-9.9-5.9-13.4c-3.9-3.5-9.3-5.2-16.1-5.2
		c-12.6,0-20.8,5.4-24.8,16.1l-8.5-5c2.5-6.2,6.5-11.2,12-15c5.5-3.8,12.6-5.7,21.2-5.7c9.6,0,17.4,2.7,23.4,8.1
		c5.9,5.4,8.9,12.1,8.9,20.2C2919.9,371.8,2915.3,379.4,2905.9,384.3z"/>
	<path class="st3" d="M3013.4,427.9c-7.4,7.4-16.5,11-27.2,11c-10.7,0-19.8-3.7-27.2-11c-7.4-7.3-11.2-16.4-11.2-27.2
		s3.7-19.9,11.2-27.2c7.4-7.3,16.5-11,27.2-11c10.7,0,19.8,3.7,27.2,11c7.4,7.4,11.2,16.4,11.2,27.2S3020.9,420.6,3013.4,427.9z
		 M2965.8,421.2c5.5,5.6,12.4,8.4,20.4,8.4c8.1,0,14.9-2.8,20.4-8.4c5.5-5.6,8.3-12.4,8.3-20.5c0-8.1-2.8-14.9-8.3-20.5
		c-5.5-5.6-12.4-8.4-20.4-8.4c-8.1,0-14.9,2.8-20.4,8.4c-5.5,5.6-8.3,12.4-8.3,20.5C2957.5,408.8,2960.2,415.6,2965.8,421.2z"/>
	<path class="st3" d="M3099.5,399.7c8,2.9,12,8.6,12,17.1c0,5.9-2,10.8-5.9,14.7c-3.9,3.8-9.6,5.8-17,5.8h-35.5v-73h32.6
		c7.1,0,12.6,1.8,16.5,5.5c3.9,3.6,5.8,8.3,5.8,14.1C3108,391.1,3105.2,396.4,3099.5,399.7z M3085.6,373.5h-22.9v22.2h22.9
		c8.5,0,12.7-3.8,12.7-11.4c0-3.4-1.1-6.1-3.3-8S3089.7,373.5,3085.6,373.5z M3088.6,427.9c4.3,0,7.6-1,9.9-3.1
		c2.3-2,3.4-4.9,3.4-8.6c0-3.4-1.1-6.1-3.4-8.1c-2.3-2-5.6-3-9.9-3h-25.8v22.8H3088.6z"/>
</g>
</svg>
