<?xml version="1.0" encoding="utf-8"?>
<!-- Generator: Adobe Illustrator 25.2.0, SVG Export Plug-In . SVG Version: 6.00 Build 0)  -->
<svg version="1.1" id="Слой_1" fill="#8a9af4" xmlns="http://www.w3.org/2000/svg" xmlns:xlink="http://www.w3.org/1999/xlink" x="0px" y="0px"
	  viewBox="0 0 74 90" style="enable-background:new 0 0 74 90;" xml:space="preserve">
<g transform="translate(0,-952.36218)">
	<path d="M54.6,952.5c11.6,7.2,19.4,20.2,19.4,34.9c0,22.3-17.8,40.4-40,41v5h11c0.5,0,0.8,0.3,1,0.7l2,7c0.2,0.6-0.3,1.3-1,1.3H19
		c-0.6,0-1.1-0.7-1-1.3l2-7c0.1-0.4,0.5-0.7,1-0.7h11v-5c-5.5-0.1-10.7-1.3-15.4-3.4c-0.5-0.2-0.7-0.8-0.5-1.3
		c0.2-0.5,0.9-0.7,1.3-0.5c4.8,2.1,10,3.3,15.6,3.3c21.6,0,39-17.4,39-39c0-14-7.4-26.3-18.4-33.2c-0.4-0.2-0.6-0.7-0.5-1.1
		C53.4,952.2,54.2,952.3,54.6,952.5z M33,954.4c18.2,0,33,14.8,33,33c0,18.2-14.8,33-33,33c-18.2,0-33-14.8-33-33
		c0-13.6,8.3-25.3,20-30.3c0.1-0.1,0.1-0.2,0.2-0.2l0.2,0.1C24.2,955.3,28.5,954.4,33,954.4z M33,956.4c-4.1,0-8,0.8-11.6,2.3
		c-2.4,4-2.3,8.1-2.4,10.7c-0.1,3.1,1.3,5,2.8,7.5c0.9,1.5,2.5,2.8,3.9,4.1s2.9,2.4,3.2,4.2c0.5,2.6,0.9,5.5,1.8,7.7
		c0.4,1.1,1,2,1.7,2.6c0.7,0.6,1.4,0.9,2.6,0.9c1,0,1.7-0.3,2.3-0.9c0.7-0.6,1.2-1.5,1.8-2.6c1.4-2.7,1.6-4.9,1.6-7.2
		c0-2.3-0.2-4.8,0.3-7.5c0.6-2.8,2.2-4.6,3.6-6.1c1.4-1.5,2.4-2.7,2.4-4.7c0-4.4-1.1-7.3-3.6-9.2C40.1,957,36.6,956.4,33,956.4z
		 M47.4,959.9c1.1,2,1.6,4.5,1.6,7.4c0,2.7-1.5,4.4-2.9,6s-2.7,3-3.2,5.2c-0.5,2.4-0.3,4.6-0.3,7.1c0,2.5-0.3,5.2-1.8,8.2
		c-0.6,1.2-1.3,2.3-2.3,3.2c-1,0.8-2.2,1.4-3.6,1.4c-1.6,0-2.9-0.6-3.9-1.4s-1.7-2.1-2.2-3.3c-1-2.6-1.4-5.6-1.8-8
		c-0.2-0.8-1.2-1.9-2.6-3.1c-1.4-1.2-3.1-2.7-4.3-4.6c-1.5-2.4-3.2-4.8-3.2-8.5c0-2-0.1-5.6,1.4-9.3C8.7,965.2,2,975.5,2,987.4
		c0,4.6,1,9,2.8,12.9c2.3-1.4,5.7-1.7,9.1-1.9c0,0,0,0,0.1,0c4.8,0,8.2,1.6,9.4,4.2c1.3,2.6,0.2,5.8-2.7,8.4l0,0c0,0,0,0-0.1,0
		c-1.5,1.5-2.8,2.3-3.8,2.8c4.7,2.8,10.2,4.5,16.1,4.5c17.1,0,31-13.9,31-31C64,975.4,57.3,965.1,47.4,959.9L47.4,959.9z
		 M14.1,1000.4C14.1,1000.4,14.1,1000.4,14.1,1000.4c-3.5,0.2-6.9,0.8-8.4,1.7c2.3,4.2,5.4,7.8,9.3,10.6v-0.3c0,0,0.2,0,1-0.3
		c0.8-0.3,1.9-1,3.3-2.4c0,0,0,0,0.1,0c2.5-2.3,3.1-4.5,2.2-6.2C20.9,1001.8,18.4,1000.4,14.1,1000.4L14.1,1000.4z M44.2,1035.4
		H21.8l-1.4,5h25.4L44.2,1035.4z"/>
</g>
</svg>
