<?xml version="1.0" encoding="utf-8"?>
<!-- Generator: Adobe Illustrator 25.2.1, SVG Export Plug-In . SVG Version: 6.00 Build 0)  -->
<svg version="1.1" id="Слой_1" xmlns="http://www.w3.org/2000/svg" xmlns:xlink="http://www.w3.org/1999/xlink" x="0px" y="0px"
	 viewBox="0 0 48.4 48.3" style="enable-background:new 0 0 48.4 48.3;" xml:space="preserve">
<style type="text/css">
	.st0{fill:#455FED;}
	.st1{fill:#1C2850;}
</style>
<g>
	<g>
		<path class="st0" d="M8.6,1.5l8.8,8.8c1.4,1.4,1.9,3.4,1.1,5.2c-1.5,3.7-5.8,4.3-8.3,1.8L1.5,8.5C0.1,7.1-0.4,5.1,0.4,3.3
			C1.9-0.4,6.2-1,8.6,1.5z"/>
	</g>
</g>
<g>
	<g>
		<path class="st1" d="M46.8,8.5L8.5,46.8c-2,2-5.1,2-7.1,0s-2-5.1,0-7.1L39.7,1.5c2-2,5.1-2,7.1,0C48.8,3.4,48.8,6.6,46.8,8.5z"/>
	</g>
</g>
<g>
	<g>
		<path class="st1" d="M30.4,21.9l16.5,17.8c2,2,2,5.1,0,7.1s-5.1,2-7.1,0L23.3,29c-2-2-2-5.1,0-7.1S28.5,19.9,30.4,21.9z"/>
	</g>
</g>
</svg>
