<?xml version="1.0" encoding="utf-8"?>
<!-- Generator: Adobe Illustrator 25.1.0, SVG Export Plug-In . SVG Version: 6.00 Build 0)  -->
<svg version="1.1" id="Слой_1" fill="#fff" xmlns="http://www.w3.org/2000/svg" xmlns:xlink="http://www.w3.org/1999/xlink" x="0px" y="0px"
	  viewBox="0 0 78 80.5" style="enable-background:new 0 0 78 80.5;" xml:space="preserve">
<g>
	<path d="M74.6,0H3.4C0.6,0-1,3.2,0.7,5.4l23.1,28.9c0.6,0.8,1,1.7,1.2,2.7h20c1.1,0,2,0.9,2,2s-0.9,2-2,2H25.2v37.2
		c0,1.6,1.7,2.7,3.2,2.1l23.1-9.5c0.9-0.4,1.4-1.2,1.4-2.1V38.2c0-1.4,0.5-2.8,1.4-3.9L77.4,5.4C79,3.2,77.4,0,74.6,0z"/>
</g>
</svg>
